<svg xmlns="http://www.w3.org/2000/svg" xmlns:xlink="http://www.w3.org/1999/xlink" width="240" height="251.75"><defs><clipPath id="b"><circle cx="120" cy="120" r="120" fill="#ffd2ab"/></clipPath><clipPath id="c"><path data-name="&lt;Clipping Path&gt;" d="M200.2 238.33l-25.53-83.07c2.39-4.75 8.3-15.09 15.4-17.13 0 0-12.07-7.69-16.92 2 0 0 2.95-9 7-8.8 0 0-7.3-1.84-12.79.24l-7.36-23.9a32.61 32.61 0 0 0-6.43-12.14l10-16.14c-2.3-1.16-16.44 4.71-20.45 7.87-1.28-.64-6-2.22-7.32-2.69 3.23-10.41-2.4-17.34-2.4-17.34a8.94 8.94 0 0 1-4.13 8.9c5.17-11.87-18.88-23.68-18.88-23.68a13.71 13.71 0 0 1-4.77 13.67c-8 6.76-4.72 12.66-4.72 12.66s-4.6-1.28-4.27-5.66c-4.13 4.94-2 9.24.13 12.21A64.26 64.26 0 0 0 89 89.17l-.37-.7c-6-5-16.95-6.69-18.45-4.58l8.77 15.67a32.64 32.64 0 0 0-4.49 12.76l-4.32 22.73c-5.94-1.53-12.91 2.49-12.91 2.49 3.88-1.22 9.08 6.65 9.08 6.65-7.21-8-16.84 2.56-16.84 2.56 7.39.11 13.44 9.2 15.88 13.47l-15.8 82.94c-.74 5.61 152.73 2.53 150.65-4.83z" fill="none"/></clipPath><linearGradient id="d" x1="126.45" y1="52.15" x2="126.45" y2="310.77" gradientUnits="userSpaceOnUse"><stop offset="0" stop-color="#ff8173"/><stop offset=".4" stop-color="#ffa17f"/><stop offset=".77" stop-color="#ffb987"/><stop offset="1" stop-color="#ffc18a"/></linearGradient><linearGradient id="a" x1="155.98" y1="78.89" x2="155.98" y2="94.39" gradientUnits="userSpaceOnUse"><stop offset="0" stop-color="gray"/><stop offset=".14" stop-color="#797979"/><stop offset=".35" stop-color="#646464"/><stop offset=".6" stop-color="#434343"/><stop offset=".89" stop-color="#141414"/><stop offset="1"/></linearGradient><linearGradient id="e" x1="70.14" y1="91.74" x2="84.37" y2="91.74" xlink:href="#a"/><linearGradient id="f" x1="166.96" y1="239.19" x2="166.96" y2="84.57" gradientUnits="userSpaceOnUse"><stop offset="0" stop-color="#fff" stop-opacity="0"/><stop offset=".72" stop-color="#fff"/></linearGradient><clipPath id="g"><path data-name="&lt;Clipping Path&gt;" d="M134 118.31c-1.45 11 6.07 19.13 17.05 20.58s21.24-4.35 22.69-15.32a20 20 0 0 0-39.74-5.26z" fill="#fff" stroke="#31323d" stroke-linecap="round" stroke-miterlimit="10" stroke-width="1.361"/></clipPath><clipPath id="h"><path data-name="&lt;Clipping Path&gt;" d="M101.48 122c1.31 9.92-6.33 16.11-16.25 17.42s-18.36-2.75-19.68-12.67a18.12 18.12 0 1 1 35.93-4.75z" fill="#fff" stroke="#31323d" stroke-linecap="round" stroke-miterlimit="10" stroke-width="1.361"/></clipPath></defs><g data-name="Layer 2"><g data-name="Layer 24"><circle cx="120" cy="120" r="120" fill="#ffd2ab"/><g clip-path="url(#b)"><g clip-path="url(#c)"><path fill="url(#d)" d="M229.91 240H22.99V48.14h206.92V240z"/><path d="M163.59 79.39s-1.92-3.09-10.59 6.09L148.37 91l6.48 3.4z" style="mix-blend-mode:multiply" opacity=".4" fill="url(#a)"/><path d="M70.15 83.89s-.27-1.18 5.74 1.28A16.7 16.7 0 0 1 82.35 90l2 2.43-5.13 7.48z" style="mix-blend-mode:multiply" opacity=".4" fill="url(#e)"/><path d="M91.32 249.81c5.28-22 2.19-24.43 6.8-37.56 3.15-9 6.41-17.85 15.11-22 1-.5 9-4.18 17-1 7.84 3.15 11 11 14.33 19.31 4 10.09 2.72 13.57 7.22 38.82.95 5.26-61.17 5.37-60.46 2.43z" fill="#f7ebda"/></g><path d="M200.2 238.33l-25.53-83.07c2.39-4.75 8.3-15.09 15.4-17.13 0 0-12.07-7.69-16.92 2 0 0 2.95-9 7-8.8 0 0-7.3-1.84-12.79.24l-7.36-23.9a32.61 32.61 0 0 0-6.43-12.14l10-16.14c-2.3-1.16-16.44 4.71-20.45 7.87a32.83 32.83 0 0 0-4-1.67c2.14-9.9-5.76-18.36-5.76-18.36a8.94 8.94 0 0 1-4.13 8.9c5.17-11.87-18.88-23.68-18.88-23.68a13.71 13.71 0 0 1-4.77 13.67c-8 6.76-4.72 12.66-4.72 12.66s-4.6-1.28-4.27-5.66a12.57 12.57 0 0 0-2.21 13.16A32.45 32.45 0 0 0 89 89.17l-.37-.7c-6-5-16.95-6.69-18.45-4.58l8.77 15.67a32.64 32.64 0 0 0-4.49 12.76l-4.32 22.73c-5.94-1.53-12.91 2.49-12.91 2.49 3.88-1.22 9.08 6.65 9.08 6.65-7.21-8-16.84 2.56-16.84 2.56 7.39.11 13.44 9.2 15.88 13.47l-15.8 82.94c-.74 5.61 152.73 2.53 150.65-4.83z" fill="none"/><g clip-path="url(#c)"><path d="M163.59 79.39s-1.92-3.09-10.59 6.09L148.37 91l6.48 3.4z" style="mix-blend-mode:multiply" opacity=".4" fill="url(#a)"/><path d="M70.15 83.89s-.27-1.18 5.74 1.28A16.7 16.7 0 0 1 82.35 90l2 2.43-5.13 7.48z" style="mix-blend-mode:multiply" opacity=".4" fill="url(#e)"/><path d="M91.32 249.81c5.28-22 2.19-24.43 6.8-37.56 3.15-9 6.41-17.85 15.11-22 1-.5 9-4.18 17-1 7.84 3.15 11 11 14.33 19.31 4 10.09 2.72 13.57 7.22 38.82.95 5.26-61.17 5.37-60.46 2.43z" fill="#fff"/></g><g clip-path="url(#c)" opacity=".2"><path d="M134.6 86.6s8.52 2.86 11.51 7.12 7.09 11.74 10 24.63c2.34 10.31 5.2 25 9.34 37.84 1.59 4.92 4.05 7.54 5.74 12.57 8.95 26.69 17.59 53.85 21.32 70.43l6.78-3.73-24.51-79.72s4.78-9.13 7.09-11.64c1.71-1.86 8.17-6 8.17-6s-5.75-3.86-11.2-2.71c-3.4.72-5.72 4.66-5.72 4.66s1.66-8 7-8.8c0 0-2.51-1.43-10.09-.75a23.18 23.18 0 0 0 2.71-11.82c-.5-6.22-4.69-13-14.41-15.6a24 24 0 0 0-4.93-7.43c-4.12-4-10.69-9-17.62-11.11z" fill="url(#f)"/></g><path fill="none" stroke="#31323d" stroke-linecap="round" stroke-miterlimit="10" stroke-width="1.701" d="M176.41 160.94l23.79 77.39"/><path d="M100.44 88.6c-11.1 3.22-18.15 15.76-22 32.6-.89 3.94-1.71 8.6-2.5 13.73a38.49 38.49 0 0 0-.41 6c0 4.88.25 9.62.52 13.5.23 3.29-1.09 7.26-3 10.56a38.28 38.28 0 0 0-4.63 13.1v.17c-2.74 18.12-6.3 48.07-7.16 55-.55 4.45-12 12.1-11.37 8.19.78-4.82 5-26 9-47.16l6.36-33.4c-6.3-14.77-15.76-14.13-15.76-14.13 12.7-11 16.84-2.56 16.84-2.56-2-4.19-7.93-7-7.93-7 6.85-3.78 11.76-2.1 11.76-2.1L75 109.26s2.45-17 21.8-23.93z" style="mix-blend-mode:soft-light" fill="#150300" opacity=".5"/><path fill="none" stroke="#31323d" stroke-linecap="round" stroke-miterlimit="10" stroke-width="1.701" d="M64.07 166.79l-14.52 76.37m125.26-87.42l8.12 26.41M167.21 131L160 107.67a32.8 32.8 0 0 0-20.35-21.9l-3.6-1.2m-65.81 49.81l4.19-22a32.79 32.79 0 0 1 19.64-25.9l2.46-1m-34.39 91.46l3.06-16.05"/><path d="M66.05 162.61a47.17 47.17 0 0 0-3.05-5.09 38.83 38.83 0 0 0-3.73-4.62 21.64 21.64 0 0 0-4.51-3.68 10.58 10.58 0 0 0-5.3-1.61.84.84 0 0 1-.84-.85.8.8 0 0 1 .22-.56 23.34 23.34 0 0 1 3.86-3.25 15.94 15.94 0 0 1 4.61-2.2 9.14 9.14 0 0 1 5.26 0 9.86 9.86 0 0 1 4.37 2.91l-1.35 1a26.31 26.31 0 0 0-1.73-2.28 22.55 22.55 0 0 0-2-2.06 10.08 10.08 0 0 0-2.21-1.6 3 3 0 0 0-2.21-.37h-.15a.85.85 0 0 1-1.07-.53.86.86 0 0 1 .54-1.07 26.31 26.31 0 0 1 4-1.61 22.6 22.6 0 0 1 4.15-.91 14.55 14.55 0 0 1 4.27.1 9.77 9.77 0 0 1 4 1.64.33.33 0 0 1 .08.47.34.34 0 0 1-.46.09 9.08 9.08 0 0 0-3.8-1.22 13.51 13.51 0 0 0-4 .16 20.75 20.75 0 0 0-3.84 1.1 23.75 23.75 0 0 0-3.59 1.72l-.57-1.55a4.64 4.64 0 0 1 3.49.47 12.39 12.39 0 0 1 2.51 1.86 24.46 24.46 0 0 1 2.11 2.22 27.91 27.91 0 0 1 1.89 2.44.85.85 0 0 1-1.32 1.05 8 8 0 0 0-3.6-2.42 7.45 7.45 0 0 0-4.31 0 14.14 14.14 0 0 0-4.11 2 21.86 21.86 0 0 0-3.56 3l-.61-1.43a12.18 12.18 0 0 1 6.06 2 23 23 0 0 1 4.66 4.07 38.66 38.66 0 0 1 3.7 4.88 46.26 46.26 0 0 1 3 5.32.49.49 0 0 1-.22.64.48.48 0 0 1-.63-.21zm107.04-5.13a48.35 48.35 0 0 1 2.79-6 53.14 53.14 0 0 1 3.54-5.63 33.73 33.73 0 0 1 4.48-5 15.88 15.88 0 0 1 5.93-3.53l-.23 1.58a22 22 0 0 0-4.21-1.93 14.25 14.25 0 0 0-4.47-.81 7.54 7.54 0 0 0-4.14 1.1 8.12 8.12 0 0 0-2.81 3.26.91.91 0 0 1-1.24.39.9.9 0 0 1-.44-1.11 25.22 25.22 0 0 1 1.16-2.84 22.71 22.71 0 0 1 1.47-2.69 12.07 12.07 0 0 1 2-2.47 4.65 4.65 0 0 1 3.26-1.36l-.24 1.68a28.93 28.93 0 0 0-4.19-.77 25.4 25.4 0 0 0-4.27-.12 14.9 14.9 0 0 0-4.15.81 8.93 8.93 0 0 0-3.5 2.26.34.34 0 0 1-.51-.45 9.51 9.51 0 0 1 3.66-2.67 15.6 15.6 0 0 1 4.39-1.13 25.93 25.93 0 0 1 4.49-.14 30.11 30.11 0 0 1 4.49.56.84.84 0 0 1-.2 1.67 3 3 0 0 0-2 1 10.3 10.3 0 0 0-1.69 2.13 23 23 0 0 0-1.33 2.51c-.4.86-.75 1.77-1.06 2.65l-1.69-.7a9.87 9.87 0 0 1 3.48-4 9.35 9.35 0 0 1 5.11-1.36 16.07 16.07 0 0 1 5 .93 23.18 23.18 0 0 1 4.58 2.13.88.88 0 0 1 .29 1.2.84.84 0 0 1-.49.38 14 14 0 0 0-5.26 3.13 33.79 33.79 0 0 0-4.27 4.73 62.88 62.88 0 0 0-3.62 5.36c-1.13 1.84-2.2 3.74-3.2 5.65a.49.49 0 0 1-.65.2.47.47 0 0 1-.26-.6z" fill="#31323d"/><path d="M88.6 88.47c-6-5-16.95-6.69-18.45-4.58l8.77 15.67m64.22-12.3c4-3.16 18.15-9 20.45-7.87l-10 16.14" fill="none" stroke="#31323d" stroke-linecap="round" stroke-miterlimit="10" stroke-width="1.701"/><path d="M100.17 89a19 19 0 0 1-3.49-3.14 13.19 13.19 0 0 1-2.45-4.06 8.54 8.54 0 0 1-.31-4.8 10.63 10.63 0 0 1 2.2-4.29.68.68 0 0 1 1-.11.67.67 0 0 1 .25.55 4.22 4.22 0 0 0 1 3.07 5 5 0 0 0 1.28 1.09 6.63 6.63 0 0 0 1.53.72l-.87 1.1a9.3 9.3 0 0 1 .24-7.91 18.18 18.18 0 0 1 4.86-6 13.34 13.34 0 0 0 3.88-5.73 13 13 0 0 0 .36-6.84.85.85 0 0 1 .64-1 .82.82 0 0 1 .58.07 68.47 68.47 0 0 1 7.13 4.19 50.87 50.87 0 0 1 6.55 5.18 23.72 23.72 0 0 1 5.19 6.72 11.45 11.45 0 0 1 1.17 4.26 9.65 9.65 0 0 1-.78 4.41l-1.22-1.11a8.3 8.3 0 0 0 1.75-1.49 8.1 8.1 0 0 0 1.29-1.94 8.21 8.21 0 0 0 .66-4.6v-.09a.83.83 0 0 1 1.49-.58 16.78 16.78 0 0 1 2.63 5.11 17.74 17.74 0 0 1 .87 5.59 18.35 18.35 0 0 1-.87 5.56 24 24 0 0 1-2.36 5.07.48.48 0 0 1-.82-.48 22.35 22.35 0 0 0 2-4.91 17.47 17.47 0 0 0 .65-5.22 16.84 16.84 0 0 0-1-5.12 15.57 15.57 0 0 0-2.49-4.49l1.49-.66a9.91 9.91 0 0 1-.79 5.54 9.69 9.69 0 0 1-1.5 2.34 9.51 9.51 0 0 1-2.2 1.85.86.86 0 0 1-1.23-1.08 8.48 8.48 0 0 0-.37-7.22 22.15 22.15 0 0 0-4.8-6.21 50.39 50.39 0 0 0-6.32-5 66.38 66.38 0 0 0-7-4.12l1.2-1a14.32 14.32 0 0 1-.39 7.85 14.88 14.88 0 0 1-4.37 6.45 16.56 16.56 0 0 0-4.53 5.41 9 9 0 0 0-.88 3.28 6.78 6.78 0 0 0 .53 3.21v.07a.74.74 0 0 1-.36 1 .81.81 0 0 1-.55 0 8 8 0 0 1-1.93-.92 6.79 6.79 0 0 1-1.6-1.43 5.52 5.52 0 0 1-1-2 5.81 5.81 0 0 1-.2-2.15l1.21.49a9.5 9.5 0 0 0-2 3.71 7.35 7.35 0 0 0 .18 4.15 12.22 12.22 0 0 0 2.16 3.76 18 18 0 0 0 3.21 3 .47.47 0 0 1 .11.66.49.49 0 0 1-.61.24z" fill="#31323d"/><path data-name="&lt;Clipping Path&gt;" d="M134 118.31c-1.45 11 6.07 19.13 17.05 20.58s21.24-4.35 22.69-15.32a20 20 0 0 0-39.74-5.26z" fill="#fff"/><g clip-path="url(#g)"><circle cx="153.68" cy="121.95" r="10.55" fill="#26edab"/><circle cx="153.68" cy="121.95" r="7.78" fill="#31323d"/><circle cx="156.55" cy="115.35" r="4.23" fill="#fff"/></g><path data-name="&lt;Clipping Path&gt;" d="M134 118.31c-1.45 11 6.07 19.13 17.05 20.58s21.24-4.35 22.69-15.32a20 20 0 0 0-39.74-5.26z" fill="none" stroke="#31323d" stroke-linecap="round" stroke-miterlimit="10" stroke-width="1.361"/><path d="M144.44 92.54c9.54-3.78 20.4-1.57 25.75 3.14" fill="none" stroke="#31323d" stroke-linecap="round" stroke-miterlimit="10" stroke-width="4.083"/><path data-name="&lt;Clipping Path&gt;" d="M101.48 122c1.31 9.92-6.33 16.11-16.25 17.42s-18.36-2.75-19.68-12.67a18.12 18.12 0 1 1 35.93-4.75z" fill="#fff"/><g clip-path="url(#h)"><circle cx="83.47" cy="125.01" r="9.99" fill="#26edab"/><circle cx="83.47" cy="125.01" r="7.37" fill="#31323d"/><circle cx="86.19" cy="118.77" r="4.01" fill="#fff"/></g><path data-name="&lt;Clipping Path&gt;" d="M101.48 122c1.31 9.92-6.33 16.11-16.25 17.42s-18.36-2.75-19.68-12.67a18.12 18.12 0 1 1 35.93-4.75z" fill="none" stroke="#31323d" stroke-linecap="round" stroke-miterlimit="10" stroke-width="1.361"/><path d="M64.88 108.3c8.79 1.53 15.71-.49 21.37-7.22" fill="none" stroke="#31323d" stroke-linecap="round" stroke-miterlimit="10" stroke-width="4.083"/><path d="M111.16 166.24s1.35 9.83 11.74 9a10.85 10.85 0 0 0 10.51-10.06 14 14 0 0 1-9.84 4.64c-6.51.39-12.41-3.58-12.41-3.58z" style="mix-blend-mode:multiply" fill="#595959" opacity=".2"/><path d="M111.12 134.43a2.06 2.06 0 0 1 .31-2.2c1.13-1.28 3.59-3.23 8.42-3.64s7.26 1.09 8.44 2.19a2 2 0 0 1 .51 2.16 2.81 2.81 0 0 1-2.35 1.86 5.45 5.45 0 0 0-4.26 2.5 1.86 1.86 0 0 1-.23.32 2.41 2.41 0 0 1-3.45.08s-1.12-1.62-4.79-1.62a2.81 2.81 0 0 1-2.54-1.65z" fill="#31323d"/><path d="M121.46 138.14c.05 1.52.09 3.05.18 4.56a17.11 17.11 0 0 0 .67 4.31 5.57 5.57 0 0 0 1.08 1.75 9.54 9.54 0 0 0 1.69 1.37c1.25.81 2.61 1.54 4 2.27a.24.24 0 0 1-.22.43c-1.39-.62-2.8-1.22-4.18-2a10.59 10.59 0 0 1-2-1.35 6.79 6.79 0 0 1-1.49-2 18.25 18.25 0 0 1-1.15-4.63c-.23-1.54-.39-3.06-.57-4.58a1 1 0 0 1 .89-1.14 1 1 0 0 1 1.13.89.28.28 0 0 1 0 .09z" fill="#31323d"/><path d="M125.42 151.13c-4.79-2.4-9.57.36-9.57.36l2.83-2.42 1.95-2.73 2.16 2.58z" fill="#31323d"/><path d="M113.17 153.09c1.2-1.12 2.55-2.11 3.8-3.13a9.71 9.71 0 0 0 1.65-1.61 5.65 5.65 0 0 0 .87-2 17.89 17.89 0 0 0 .24-4.66c0-.79-.11-1.6-.17-2.4s-.36-1.6.14-2.45a.83.83 0 0 1 1.13-.29.71.71 0 0 1 .23.19 1.89 1.89 0 0 1 .42 1.2v3.74a17.88 17.88 0 0 1-.65 5.07 6.87 6.87 0 0 1-1.33 2.35 10.19 10.19 0 0 1-2 1.63c-1.41.88-2.8 1.69-4.16 2.6a.16.16 0 0 1-.22 0 .17.17 0 0 1 .05-.24zm20.59 11.71a8.85 8.85 0 0 1-4.48 5.06 14.76 14.76 0 0 1-6.62 1.64 17 17 0 0 1-6.66-1.26 12.49 12.49 0 0 1-5.35-4 .35.35 0 0 1 .51-.46 15.4 15.4 0 0 0 5.42 2.9 19.65 19.65 0 0 0 6 .83 16.66 16.66 0 0 0 5.9-1.21 10 10 0 0 0 4.63-3.74.34.34 0 0 1 .61.29zm.63-23.51a73.4 73.4 0 0 1 12.33-1.44 63.13 63.13 0 0 1 12.36.75 41.23 41.23 0 0 1 11.78 3.7 28.65 28.65 0 0 1 9.55 7.68 28.5 28.5 0 0 0-9.7-7.38 41 41 0 0 0-11.71-3.33 62.32 62.32 0 0 0-12.21-.4 73.12 73.12 0 0 0-12.08 1.74.68.68 0 1 1-.31-1.32zm23.54-6.71a69.54 69.54 0 0 0-20.56 3.75.67.67 0 0 1-.86-.42.67.67 0 0 1 .42-.86 70.2 70.2 0 0 1 21-2.47zm-21.67 9.86a17.1 17.1 0 0 1 6.38.12 21.49 21.49 0 0 1 5.84 2.33 30.51 30.51 0 0 1 5 3.74 32.76 32.76 0 0 1 4.16 4.57 33.19 33.19 0 0 0-4.39-4.32 30.16 30.16 0 0 0-5.08-3.39 21 21 0 0 0-5.71-1.93 16 16 0 0 0-5.9.21h-.05a.68.68 0 0 1-.28-1.33zm-28.65.26c-4.08-.81-8.13-1.59-12.23-2.07a68.09 68.09 0 0 0-12.38-.42 36.89 36.89 0 0 0-12 2.65 23.7 23.7 0 0 0-9.75 7.44 23.93 23.93 0 0 1 9.62-7.76 37.47 37.47 0 0 1 12.11-3 67.89 67.89 0 0 1 12.51.08c4.16.36 8.29 1 12.37 1.74a.68.68 0 0 1 .56.78.69.69 0 0 1-.79.56zm-23.78-7.99a36.84 36.84 0 0 1 21.37 2.57.68.68 0 0 1-.54 1.25 36.1 36.1 0 0 0-20.83-3.82zm22.02 11.22a13.57 13.57 0 0 0-2.91-.45 13.43 13.43 0 0 0-3 .27 18.18 18.18 0 0 0-5.6 2.29 30 30 0 0 0-4.91 3.73 36.29 36.29 0 0 0-4.18 4.58 35.66 35.66 0 0 1 3.95-4.82 29.93 29.93 0 0 1 4.8-4.06 19 19 0 0 1 5.73-2.71 14.89 14.89 0 0 1 3.2-.47 13.69 13.69 0 0 1 3.25.33.68.68 0 0 1 .52.81.68.68 0 0 1-.81.52h-.05z" fill="#31323d"/><path d="M126 31l-.66 3.44a2.62 2.62 0 0 1-3.18 2.09 2.7 2.7 0 0 1-2.2-3.11l1-5.51c0-.05.07 0 .08-.1s0-.06 0-.11a2.78 2.78 0 0 1 3.19-2.09 6.2 6.2 0 0 0 7.39-4.75 6.37 6.37 0 0 0-11-5.21 2.82 2.82 0 0 1-3.92.25 2.58 2.58 0 0 1-.26-3.73 11.82 11.82 0 0 1 11-3.63A11.59 11.59 0 0 1 137 21.88 11.42 11.42 0 0 1 126 31zm-2.21 11.61l-.18 1a2.62 2.62 0 0 1-3.18 2.09 2.7 2.7 0 0 1-2.2-3.11l.18-.95a2.73 2.73 0 0 1 3.18-2.09 2.66 2.66 0 0 1 2.2 3.07zm-40.35-4.68l1 2a1.7 1.7 0 0 1-.87 2.31 1.75 1.75 0 0 1-2.39-.64l-1.61-3.13v-.07c0-.07 0 0-.07-.05a1.8 1.8 0 0 1 .89-2.35 4 4 0 0 0 2.08-5.31 4 4 0 0 0-5.53-1.43 4.22 4.22 0 0 0-2.35 3.3 2 2 0 0 1-2 1.7A1.56 1.56 0 0 1 71 32.52a8 8 0 0 1 4.43-6.22c3.87-2 8.48-.77 10.27 2.72a7.3 7.3 0 0 1-2.26 8.91zm3.38 6.59l.27.54a1.7 1.7 0 0 1-.87 2.31 1.76 1.76 0 0 1-2.39-.64l-.28-.54a1.77 1.77 0 0 1 .88-2.31 1.73 1.73 0 0 1 2.39.64zm62.95 2.29l-.28.38a1.25 1.25 0 0 1-1.78.29 1.27 1.27 0 0 1-.29-1.78l.27-.39a1.31 1.31 0 0 1 1.79-.29 1.27 1.27 0 0 1 .29 1.79zm3.33-4.64l-1 1.38a1.25 1.25 0 0 1-1.78.29 1.28 1.28 0 0 1-.3-1.78l1.59-2.2v-.06a1.31 1.31 0 0 1 1.78-.29 2.92 2.92 0 1 0 3.4-4.74 2.87 2.87 0 0 0-2.86-.3 1.28 1.28 0 1 1-1.06-2.33 5.48 5.48 0 1 1 .16 10.06z"/></g></g></g></svg>