<svg width="61" height="18" xmlns="http://www.w3.org/2000/svg"><path d="M33.117 11.92c0 1.865-2.32 1.754-2.32 1.754h-2.319v-3.369h2.32c2.388-.014 2.32 1.616 2.32 1.616zm-4.639-6.75h1.767c1.837.097 1.768 1.463 1.768 1.463 0 1.699-2.03 1.726-2.03 1.726h-1.505v-3.19zm4.211 3.852s1.588-.676 1.574-2.472c0 0 .242-2.94-3.655-3.3h-4.325v12.33h4.957s4.142.015 4.142-3.479c0 0 .096-2.375-2.693-3.079zM21.498.833h18.206V17.99H21.498V.833zM12.123 11.92c0 1.865-2.32 1.754-2.32 1.754h-2.32v-3.369h2.32c2.389-.014 2.32 1.616 2.32 1.616zm-4.64-6.75h1.768c1.836.097 1.767 1.463 1.767 1.463 0 1.699-2.03 1.726-2.03 1.726H7.485v-3.19zm4.212 3.852s1.588-.676 1.574-2.472c0 0 .241-2.94-3.656-3.3H5.288v12.33h4.957s4.142.015 4.142-3.479c0 0 .097-2.375-2.692-3.079zM.503.833H18.71V17.99H.503V.833zm56.481 3.3v2.279s-2.223-1.367-4.681-1.395c0 0-4.584-.09-4.791 4.394 0 0-.166 4.125 4.736 4.36 0 0 2.057.249 4.846-1.532v2.36s-3.742 2.224-8.077.511c0 0-3.645-1.332-3.784-5.699 0 0-.152-4.49 4.709-5.982 0 0 1.298-.497 3.631-.276 0 0 1.395.138 3.41.98zM42.492 17.99h18.206V.833H42.492V17.99z"/></svg>