<svg width="86" height="16" xmlns="http://www.w3.org/2000/svg"><path d="M0 .133h6.3c1.2 0 2.1.3 2.767.8.733.6 1.133 1.467 1.133 2.534 0 1.233-.5 2-1.5 2.466V6c1.333.433 2.1 1.633 2.1 3.067 0 1.366-.533 2.433-1.4 3.1-.733.533-1.667.766-2.933.766H0V.133zm5.667 5c.666 0 1.166-.366 1.166-1.133 0-.733-.5-1.1-1.2-1.1H3.467v2.2h2.2v.033zm.3 4.967c.766 0 1.333-.467 1.333-1.3 0-.9-.6-1.3-1.333-1.3H3.5v2.633h2.467V10.1zm5.4-9.967h3.3v12.834h-3.3zM15.333 8.4c0-2.9 1.867-4.833 4.767-4.833 2.9 0 4.733 1.966 4.733 4.833 0 2.9-1.833 4.833-4.733 4.833-2.9 0-4.767-1.933-4.767-4.833zm6.2 0c0-1.6-.5-2.6-1.5-2.6s-1.466 1-1.466 2.6.466 2.633 1.466 2.633c1-.033 1.5-1.033 1.5-2.633zm3.667 0c0-2.9 1.867-4.833 4.767-4.833 2.9 0 4.7 1.933 4.7 4.833 0 2.9-1.834 4.833-4.734 4.833-2.866 0-4.733-1.933-4.733-4.833zm6.2 0c0-1.6-.5-2.6-1.5-2.6s-1.467 1-1.467 2.6.467 2.633 1.467 2.633C30.9 11 31.4 10 31.4 8.4zm3.933-4.6H38.4v1.367h.067c.6-1.067 1.433-1.634 2.766-1.634 1.167 0 2.034.567 2.467 1.567h.067c.733-1.2 1.7-1.567 2.833-1.567 2.133 0 3.033 1.567 3.033 3.667v5.733h-3.2V7.767c0-.934-.3-1.534-1.1-1.534s-1.2.734-1.2 1.734v4.966h-3.2V7.767c0-.934-.3-1.534-1.1-1.534s-1.2.734-1.2 1.734v4.966h-3.3V3.8zm18.334 7.933h-.034v1.2h-3.066V.133h3.2v4.6h.066c.6-.8 1.434-1.233 2.6-1.233 2.3 0 3.634 2.067 3.634 4.833 0 3.1-1.434 4.9-3.834 4.9-1 0-2.033-.466-2.566-1.5zm3.1-3.433c0-1.467-.534-2.433-1.5-2.433-1 0-1.6.966-1.6 2.433 0 1.467.633 2.433 1.6 2.433.966 0 1.5-.933 1.5-2.433zm3.666.067c0-2.867 1.9-4.834 4.634-4.834 1.366 0 2.4.434 3.2 1.2 1.066 1.034 1.533 2.634 1.5 4.5h-6.134c.134 1.134.667 1.734 1.634 1.734.566 0 1.066-.267 1.266-.867h3.1c-.533 2.1-2.166 3.133-4.466 3.133-2.834-.033-4.734-1.966-4.734-4.866zm3.2-.967h2.934c-.067-1.1-.667-1.667-1.434-1.667-.9-.033-1.4.6-1.5 1.667zM73.4 5.367h.067C74.133 4.1 75 3.6 76.1 3.6c.267 0 .433.033.533.1v2.8h-.066c-1.9-.333-3 .567-3 2.633v3.834h-3.234V3.8H73.4v1.567zm3.567 7.6h3.1c.133.4.533.766 1.3.766 1.033 0 1.4-.633 1.4-1.6v-.666H82.7c-.5.6-1.2 1.033-2.2 1.033-1.967 0-3.7-1.467-3.7-4.333 0-2.634 1.4-4.667 3.533-4.667 1.234 0 1.967.5 2.467 1.267h.067v-1h3.066V11.7c0 1.467-.5 2.6-1.266 3.267-.8.7-1.934 1-3.234 1-2.466.033-4.166-.967-4.466-3zM82.9 8.033c0-1.133-.533-2.066-1.467-2.066-.9 0-1.466.8-1.466 2.066 0 1.234.566 2.1 1.466 2.1s1.467-.9 1.467-2.1z"/></svg>