<svg width="186" height="17" xmlns="http://www.w3.org/2000/svg"><path d="M184.829 13.872c-.54 0-.991.46-.991 1.081s.45 1.082.99 1.082c.541 0 .992-.46.992-1.082 0-.62-.45-1.081-.991-1.081zm-35.862 2.093h4.55v-.413l-.495-.116c-.45-.115-.654-.368-.654-1.012V8.167h1.06c.652 0 .99.16 1.035 1.564l.113 2.945c.09 2.645.833 3.382 2.095 3.382 1.284 0 1.622-.898 1.622-2.163v-.53h-.474v.392c0 .851-.112 1.45-.428 1.45-.292 0-.315-.23-.382-1.289l-.135-2.024c-.18-2.715-.519-3.658-2.478-4.026 1.87-.506 3.018-1.91 3.018-3.911 0-2.6-2.005-3.842-3.92-3.842h-7.68v.414l.427.092c.811.184.834.621.834 2.485v9.156c0 2.047-.564 3.036-1.848 3.036-1.148 0-1.78-.575-1.78-2.806V1.61c0-.644.203-.828.699-.943l.608-.138V.115h-4.707v.414l.495.138c.45.138.608.322.608.966v10.698c0 2.415 1.374 3.75 3.47 3.75 2.094 0 3.13-1.335 3.13-3.82V2.278c0-1.242.248-1.679 1.239-1.679.789 0 1.127.276 1.127 1.035v12.79c0 .645-.203.875-.654.99l-.495.139v.413zm30.23-14.332c0-.644.203-.85.653-.943l.609-.138V.115h-4.686v.414l.496.138c.45.138.653.322.653.966v12.883c0 .621-.247.967-.946.967-.811 0-.924-.277-1.216-1.634L171.876.07h-.901l-2.748 13.343c-.316 1.495-.473 1.84-1.081 2.024l-.384.116v.413h3.222v-.413l-.473-.093c-.676-.138-.856-.506-.518-2.254l1.622-8.535 1.78 9.041c.27 1.311.247 1.564-.722 1.748l-.473.093v.413h11.94V10.72h-.429c-.225 2.416-.698 4.693-2.612 4.693h-.902V1.633zm-7.028 10.053v-.62h-3.041l-.09.62h3.13zm-12.57-9.777v10.997c0 1.656 0 2.438-.81 2.577l-.406.069v.413h3.311v-.413c-1.441-.208-1.441-.714-1.441-2.508V2.6l-.54-.507 5.518 13.872h.946V3.175c0-1.887 0-2.3.901-2.554l.315-.092V.115h-3.401v.414l.383.092c1.149.207 1.149.667 1.149 2.416v8.005l.225-.069L161.56.115h-3.221v.414l.315.092c.361.115.563.53.946 1.288zM152.37.667h.9c.901 0 1.735.598 1.735 3.589 0 3.06-.63 3.359-1.892 3.359h-.744V.667zm-15.003 7.224c0 6.648-.54 7.592-1.712 7.592-1.171 0-1.69-.944-1.69-7.546 0-6.396.564-7.316 1.69-7.316 1.171 0 1.712.92 1.712 7.27zm2.455.138c0-4.394-1.374-8.029-4.167-8.029-2.816 0-4.145 3.635-4.145 8.029 0 4.417 1.374 8.052 4.145 8.052 2.86 0 4.167-3.635 4.167-8.052zm-9.64-6.396c0-.644.157-.85.607-.966l.496-.138V.115h-4.663v.414l.563.138c.45.115.698.276.698.943v11.066c0 1.541-.135 2.783-1.261 2.783-.721 0-1.262-.575-1.239-.989.067-.713 1.239-.667 1.329-1.817.067-.828-.45-1.174-.924-1.242-.698-.093-1.554.505-1.577 1.702-.023 1.541.969 2.945 2.658 2.945 1.87 0 3.312-1.289 3.312-3.75V1.632zm-75.24 0c0-.644.204-.85.654-.943l.608-.138V.115h-4.685v.414l.495.138c.45.138.654.322.654.966v12.883c0 .621-.248.967-.947.967-.81 0-.946-.277-1.239-1.634L47.598.07h-.9l-2.75 13.343c-.314 1.495-.472 1.84-1.08 2.024l-.383.116v.413h3.221v-.413l-.473-.093c-.676-.138-.856-.506-.518-2.254l1.622-8.581 1.78 9.087c.247 1.311.247 1.564-.721 1.748l-.474.093v.413h11.962V10.72h-.428c-.225 2.416-.698 4.693-2.613 4.693h-.901V1.633zm62.714-.966h.496c1.397 0 1.87 2.277 2.027 4.693h.428V.115h-8.177V5.36h.428c.158-2.416.631-4.693 2.027-4.693h.496v13.757c0 .644-.202.874-.653.99l-.586.138v.413h4.866v-.413l-.699-.161c-.428-.116-.653-.254-.653-.967V.667zM107.36 8.006l.698.023c1.014.023 1.306.414 1.51 2.922h.427V4.555h-.427c-.249 2.002-.52 2.853-1.488 2.876l-.72.023V.667h1.554c1.735 0 2.118 2.232 2.365 4.693h.428V.115h-7.771v.414l.495.138c.518.138.654.46.654.99v12.767c0 .644-.203.874-.654.99l-.495.138v.413h7.996V10.72h-.428c-.27 2.393-.563 4.694-2.59 4.694h-1.554V8.006zm-8.493 0l.699.023c1.013.023 1.306.414 1.509 2.922h.428V4.555h-.428c-.248 2.002-.518 2.853-1.487 2.876l-.72.023V.667h1.554c1.734 0 2.117 2.277 2.365 4.693h.428V.115h-7.997v.414l.72.138c.519.138.654.46.654.99v12.767c0 .644-.203.874-.653.99l-.496.138v.413h7.997V10.72h-.428c-.27 2.393-.563 4.694-2.59 4.694h-1.555V8.006zM89.61.667h.676c.9 0 1.734.598 1.734 3.589 0 3.014-.63 3.359-1.892 3.359h-.518V.667zm-3.402 15.298h4.55v-.413l-.495-.116c-.45-.115-.653-.368-.653-1.012V8.167h.833c.654 0 .991.276 1.037 1.564l.112 2.945c.09 2.645.834 3.382 2.095 3.382 1.284 0 1.622-.898 1.622-2.163v-.53h-.473v.392c0 .851-.113 1.45-.428 1.45-.293 0-.316-.23-.383-1.289l-.135-2.024c-.18-2.784-.54-3.658-2.478-4.026 1.87-.506 3.018-1.91 3.018-3.911 0-2.6-2.004-3.842-3.92-3.842h-4.302v.414l.496.138c.45.138.653.322.653.966v12.79c0 .645-.202.875-.653.99l-.496.139v.413zM82.762.667h.496c1.396 0 1.87 2.277 2.027 4.693h.428V.115h-8.177V5.36h.428c.157-2.416.63-4.693 2.027-4.693h.496v13.757c0 .644-.203.874-.653.99l-.586.138v.413H84v-.413l-.586-.139c-.585-.138-.653-.598-.653-.99V.668zm-5.204 11.18c0-4.716-5.068-5.958-5.068-9.385 0-.737.27-1.841 1.396-1.841 1.622 0 2.23 2.14 2.501 4.74h.428V.114h-.27c-.113.506-.316.736-.608.736-.519 0-.79-.828-2.028-.828-1.915 0-3.221 1.633-3.221 3.773 0 3.888 5.068 5.52 5.068 9.11 0 1.633-.743 2.553-1.757 2.553-1.51 0-2.5-1.817-2.77-4.739H70.8v5.245h.27c.226-.759.519-.828.766-.828.429 0 .88.92 2.186.92 2.005 0 3.536-1.77 3.536-4.21zM62.803 1.633c0-.644.203-.85.654-.943l.608-.138V.115H59.38v.414l.495.138c.45.138.653.322.653.966v12.79c0 .645-.202.875-.653.99l-.495.139v.413h7.366V10.72h-.429c-.225 2.416-.698 4.693-2.612 4.693h-.902V1.633zM47.891 11.686v-.62H44.85l-.09.62h3.13zm-13.02 4.326h.923L37.89 4.693h-.315l2.297 11.319h.812L43.43 2.669c.293-1.404.45-1.887.991-2.025l.428-.115V.115h-3.176v.414l.473.092c.676.138.833.552.518 2.254l-1.78 8.95h.27l-1.802-9.432c-.18-.898-.292-1.634.451-1.772L40.3.529V.115h-4.347v.414l.293.07c.45.114.518.39.698 1.264l.699 3.428-.136-2.07-1.554 8.374h.203L34.33 2.393c-.203-.944-.27-1.657.45-1.795l.34-.068V.115h-4.44v.414l.428.115c.405.115.63.322.901 1.587l2.86 13.78zM22.84 8.006l.699.023c1.014.023 1.306.414 1.51 2.922h.427V4.555h-.428c-.247 2.002-.518 2.853-1.487 2.876l-.72.023V.667h1.554c1.734 0 2.118 2.277 2.365 4.693h.428V.115h-7.771v.414l.495.138c.518.138.654.46.654.99v12.767c0 .644-.203.874-.654.99l-.495.138v.413h7.997V10.72h-.429c-.27 2.393-.563 4.694-2.59 4.694h-1.554V8.006zm-14.168 7.96h4.617v-.414l-.518-.116c-.405-.092-.676-.368-.676-1.012v-6.28h3.402v6.28c0 .644-.27.92-.676 1.012l-.518.116v.413h4.618v-.413l-.495-.139c-.45-.115-.654-.368-.654-1.012V1.633c0-.644.203-.85.654-.966l.495-.138V.115h-4.618v.414l.518.138c.383.115.676.276.676.943v5.913h-3.402V1.61c0-.644.248-.828.676-.943L13.29.53V.115H8.673v.414l.495.138c.45.138.653.322.653.966v12.79c0 .645-.202.875-.653.99l-.495.139v.413zM5.226.666h.496c1.396 0 1.87 2.277 2.027 4.693h.428V.115H0V5.36h.428C.586 2.944 1.058.667 2.455.667h.496v13.757c0 .644-.203.874-.653.99l-.586.138v.413h4.866v-.413l-.699-.161c-.428-.116-.653-.254-.653-.967V.667z" fill="#1C1C21"/></svg>