<svg width="628" height="69" xmlns="http://www.w3.org/2000/svg"><g fill="none" fill-rule="evenodd"><ellipse fill="#9FDCAA" cx="11.898" cy="11.932" rx="11.898" ry="11.932"/><path d="M7.03 12.475l3.6 3.61m6.135-7.949l-6.157 7.96" stroke="#FFF" stroke-width="2" stroke-linecap="round"/><path d="M40.717 12.028c0 3.28 2.094 5.501 4.828 5.501 2.388 0 3.928-1.388 4.326-3.54h-1.765c-.415 1.145-1.142 1.909-2.56 1.909-1.887 0-3.012-1.649-3.012-3.87 0-2.24 1.142-3.87 3.011-3.87 1.42 0 2.146.763 2.561 1.891h1.765c-.398-2.135-1.92-3.523-4.326-3.523-2.734 0-4.828 2.221-4.828 5.502zm15.09-2.413c-.12-.07-.467-.139-.848-.139-.744 0-1.419.4-1.713.972V9.65h-1.73v7.706h1.73v-4.981c.173-.833.83-1.232 1.54-1.232.364 0 .779.086 1.021.26V9.615zm4.396 10.691l4.05-10.656H62.47l-1.973 5.675L58.49 9.65h-1.852l2.976 7.914-1.09 2.742h1.679zm7.164-3.61v3.61h-1.73V9.65h1.73v.66c.346-.434 1.108-.834 1.956-.834 2.25 0 3.565 1.875 3.565 4.027s-1.315 4.026-3.565 4.026c-.848 0-1.61-.399-1.956-.833zm0-4.651v2.916a1.865 1.865 0 0 0 1.662 1.024c1.332 0 2.128-1.059 2.128-2.482 0-1.423-.796-2.482-2.128-2.482-.71 0-1.367.417-1.662 1.024zm7.528 3.228c0 1.528.97 2.256 2.337 2.256.536 0 1.003-.104 1.297-.277v-1.58c-.242.174-.64.313-.986.313-.571 0-.917-.278-.917-.903V11.09h1.73V9.65h-1.73V7.585h-1.73V9.65h-1.212v1.44h1.211v4.183zm12.166-1.77c0 2.36-1.488 4.026-3.651 4.026-2.164 0-3.652-1.666-3.652-4.026s1.488-4.027 3.652-4.027c2.163 0 3.651 1.667 3.651 4.027zm-1.73 0c0-1.458-.675-2.534-1.921-2.534s-1.921 1.076-1.921 2.534c0 1.458.675 2.534 1.92 2.534 1.247 0 1.922-1.076 1.922-2.534zm5.243-6.804h-1.8v10.657h1.8V14.04l1.09-1.25 3.496 4.565h2.25l-4.448-5.814 4.292-4.843h-2.267l-4.413 5.103V6.699zm9.899 2.95h-1.73v7.707h1.73V9.65zm.208-2.325c0-.59-.502-1.059-1.073-1.059s-1.073.47-1.073 1.06c0 .59.502 1.058 1.073 1.058.57 0 1.073-.469 1.073-1.059zm2.336 7.95c0 1.527.969 2.255 2.336 2.255.537 0 1.004-.104 1.298-.277v-1.58c-.242.174-.64.313-.986.313-.572 0-.918-.278-.918-.903V11.09h1.73V9.65h-1.73V7.585h-1.73V9.65h-1.212v1.44h1.212v4.183zm5.797 0c0 1.527.97 2.255 2.336 2.255.537 0 1.004-.104 1.298-.277v-1.58c-.242.174-.64.313-.986.313-.571 0-.917-.278-.917-.903V11.09h1.73V9.65h-1.73V7.585h-1.73V9.65h-1.212v1.44h1.211v4.183zm7.13-5.624h-1.73v7.706h1.73V9.65zm.208-2.326c0-.59-.502-1.059-1.073-1.059s-1.073.47-1.073 1.06c0 .59.502 1.058 1.073 1.058.57 0 1.073-.469 1.073-1.059zm6.68 7.637h1.592c-.26 1.527-1.385 2.568-3.236 2.568-2.146 0-3.635-1.631-3.635-4.009 0-2.308 1.506-4.044 3.6-4.044 2.163 0 3.34 1.545 3.34 3.801v.625h-5.244c.052 1.354.831 2.17 1.939 2.17.83 0 1.453-.365 1.644-1.111zm-1.662-4.027c-.951 0-1.661.59-1.869 1.701h3.479c-.018-.937-.554-1.7-1.61-1.7zm4.379 4.2c.225 1.493 1.47 2.395 3.27 2.395 1.73 0 2.994-.937 2.994-2.464 0-1.128-.657-1.874-1.973-2.187l-1.626-.382c-.554-.139-.796-.364-.796-.711 0-.608.623-.885 1.228-.885.796 0 1.246.347 1.402.85h1.696c-.26-1.406-1.28-2.274-3.08-2.274-1.679 0-2.908 1.024-2.908 2.413 0 1.267.814 1.857 1.904 2.117l1.592.382c.64.156.9.382.9.798 0 .608-.52.92-1.315.92-.762 0-1.333-.33-1.523-.972h-1.765z" fill="#2A2825"/><path d="M290.045 12.028c0 3.28 2.094 5.501 4.828 5.501 2.388 0 3.929-1.388 4.327-3.54h-1.766c-.415 1.145-1.142 1.909-2.56 1.909-1.887 0-3.012-1.649-3.012-3.87 0-2.24 1.142-3.87 3.011-3.87 1.42 0 2.146.763 2.561 1.891h1.766c-.398-2.135-1.921-3.523-4.327-3.523-2.734 0-4.828 2.221-4.828 5.502zm15.09-2.413c-.12-.07-.467-.139-.848-.139-.744 0-1.419.4-1.713.972V9.65h-1.73v7.706h1.73v-4.981c.173-.833.83-1.232 1.54-1.232.364 0 .78.086 1.021.26V9.615zm4.396 10.691l4.05-10.656h-1.783l-1.973 5.675-2.007-5.675h-1.852l2.977 7.914-1.09 2.742h1.678zm7.164-3.61v3.61h-1.73V9.65h1.73v.66c.347-.434 1.108-.834 1.956-.834 2.25 0 3.565 1.875 3.565 4.027s-1.315 4.026-3.565 4.026c-.848 0-1.61-.399-1.956-.833zm0-4.651v2.916a1.865 1.865 0 0 0 1.662 1.024c1.332 0 2.128-1.059 2.128-2.482 0-1.423-.796-2.482-2.128-2.482-.71 0-1.367.417-1.662 1.024zm7.528 3.228c0 1.528.97 2.256 2.337 2.256.536 0 1.003-.104 1.298-.277v-1.58c-.243.174-.64.313-.987.313-.57 0-.917-.278-.917-.903V11.09h1.73V9.65h-1.73V7.585h-1.73V9.65h-1.212v1.44h1.211v4.183zm12.166-1.77c0 2.36-1.488 4.026-3.651 4.026s-3.652-1.666-3.652-4.026 1.489-4.027 3.652-4.027c2.163 0 3.651 1.667 3.651 4.027zm-1.73 0c0-1.458-.675-2.534-1.921-2.534s-1.921 1.076-1.921 2.534c0 1.458.675 2.534 1.92 2.534 1.247 0 1.922-1.076 1.922-2.534zm9.068-6.804h-1.8v10.657h1.8V14.04l1.09-1.25 3.496 4.565h2.25l-4.448-5.814 4.292-4.843h-2.267l-4.413 5.103V6.699zm9.899 2.95h-1.731v7.707h1.73V9.65zm.207-2.325c0-.59-.502-1.059-1.073-1.059-.57 0-1.073.47-1.073 1.06 0 .59.502 1.058 1.073 1.058s1.073-.469 1.073-1.059zm2.336 7.95c0 1.527.97 2.255 2.337 2.255.536 0 1.003-.104 1.298-.277v-1.58c-.243.174-.64.313-.987.313-.57 0-.917-.278-.917-.903V11.09h1.73V9.65h-1.73V7.585h-1.73V9.65h-1.212v1.44h1.211v4.183zm5.798 0c0 1.527.969 2.255 2.336 2.255.537 0 1.004-.104 1.298-.277v-1.58c-.242.174-.64.313-.986.313-.572 0-.918-.278-.918-.903V11.09h1.73V9.65h-1.73V7.585h-1.73V9.65h-1.212v1.44h1.212v4.183zm7.13-5.624h-1.73v7.706h1.73V9.65zm.207-2.326c0-.59-.501-1.059-1.073-1.059-.57 0-1.073.47-1.073 1.06 0 .59.502 1.058 1.073 1.058.572 0 1.073-.469 1.073-1.059zm6.68 7.637h1.592c-.26 1.527-1.384 2.568-3.236 2.568-2.146 0-3.634-1.631-3.634-4.009 0-2.308 1.506-4.044 3.6-4.044 2.163 0 3.34 1.545 3.34 3.801v.625h-5.244c.052 1.354.83 2.17 1.938 2.17.831 0 1.454-.365 1.644-1.111zm-1.661-4.027c-.952 0-1.661.59-1.869 1.701h3.478c-.017-.937-.553-1.7-1.609-1.7zm4.378 4.2c.225 1.493 1.471 2.395 3.271 2.395 1.73 0 2.994-.937 2.994-2.464 0-1.128-.658-1.874-1.973-2.187l-1.627-.382c-.553-.139-.796-.364-.796-.711 0-.608.623-.885 1.229-.885.796 0 1.246.347 1.402.85h1.696c-.26-1.406-1.28-2.274-3.08-2.274-1.68 0-2.908 1.024-2.908 2.413 0 1.267.813 1.857 1.904 2.117l1.592.382c.64.156.9.382.9.798 0 .608-.52.92-1.316.92-.761 0-1.332-.33-1.523-.972h-1.765z" fill="#9C9C9B"/><ellipse fill="#EF4B62" cx="261.226" cy="11.932" rx="11.898" ry="11.932"/><path d="M264.864 8.678l-6.883 6.903m-.001-6.903l6.884 6.903" stroke="#000" stroke-width="2" stroke-linecap="round"/><ellipse fill="#EF4B62" cx="509.432" cy="11.932" rx="11.898" ry="11.932"/><path d="M513.07 8.678l-6.883 6.903m0-6.903l6.884 6.903" stroke="#000" stroke-width="2" stroke-linecap="round"/><path d="M538.252 12.028c0 3.28 2.094 5.501 4.828 5.501 2.388 0 3.928-1.388 4.326-3.54h-1.765c-.415 1.145-1.142 1.909-2.561 1.909-1.887 0-3.011-1.649-3.011-3.87 0-2.24 1.142-3.87 3.01-3.87 1.42 0 2.147.763 2.562 1.891h1.765c-.398-2.135-1.92-3.523-4.326-3.523-2.735 0-4.828 2.221-4.828 5.502zm15.09-2.413c-.121-.07-.467-.139-.848-.139-.744 0-1.42.4-1.713.972V9.65h-1.73v7.706h1.73v-4.981c.173-.833.83-1.232 1.54-1.232.363 0 .779.086 1.021.26V9.615zm4.396 10.691l4.05-10.656h-1.783l-1.973 5.675-2.008-5.675h-1.851l2.976 7.914-1.09 2.742h1.679zm7.164-3.61v3.61h-1.73V9.65h1.73v.66c.346-.434 1.108-.834 1.956-.834 2.25 0 3.565 1.875 3.565 4.027s-1.316 4.026-3.565 4.026c-.848 0-1.61-.399-1.956-.833zm0-4.651v2.916a1.865 1.865 0 0 0 1.661 1.024c1.333 0 2.129-1.059 2.129-2.482 0-1.423-.796-2.482-2.129-2.482-.71 0-1.367.417-1.66 1.024zm7.528 3.228c0 1.528.97 2.256 2.336 2.256.537 0 1.004-.104 1.298-.277v-1.58c-.242.174-.64.313-.986.313-.571 0-.917-.278-.917-.903V11.09h1.73V9.65h-1.73V7.585h-1.731V9.65h-1.211v1.44h1.211v4.183zm12.166-1.77c0 2.36-1.488 4.026-3.652 4.026-2.163 0-3.651-1.666-3.651-4.026s1.488-4.027 3.651-4.027c2.164 0 3.652 1.667 3.652 4.027zm-1.73 0c0-1.458-.676-2.534-1.922-2.534s-1.92 1.076-1.92 2.534c0 1.458.674 2.534 1.92 2.534s1.921-1.076 1.921-2.534zm8.323 3.853h2.094l-3.392-4.374 3.271-3.332h-2.215l-3.011 3.159V6.075h-1.73v11.28h1.73v-2.55l.71-.73 2.543 3.28zm5.07-7.706h-1.73v7.706h1.73V9.65zm.208-2.326c0-.59-.501-1.059-1.073-1.059-.57 0-1.072.47-1.072 1.06 0 .59.501 1.058 1.072 1.058.572 0 1.073-.469 1.073-1.059zm2.337 7.95c0 1.527.969 2.255 2.336 2.255.536 0 1.004-.104 1.298-.277v-1.58c-.242.174-.64.313-.987.313-.57 0-.917-.278-.917-.903V11.09h1.73V9.65h-1.73V7.585h-1.73V9.65h-1.212v1.44h1.212v4.183zm5.797 0c0 1.527.97 2.255 2.336 2.255.537 0 1.004-.104 1.298-.277v-1.58c-.242.174-.64.313-.986.313-.571 0-.917-.278-.917-.903V11.09h1.73V9.65h-1.73V7.585H604.6V9.65h-1.211v1.44h1.211v4.183zm7.13-5.624H610v7.706h1.73V9.65zm.208-2.326c0-.59-.502-1.059-1.073-1.059s-1.073.47-1.073 1.06c0 .59.502 1.058 1.073 1.058.57 0 1.073-.469 1.073-1.059zm6.68 7.637h1.592c-.26 1.527-1.385 2.568-3.236 2.568-2.146 0-3.635-1.631-3.635-4.009 0-2.308 1.506-4.044 3.6-4.044 2.163 0 3.34 1.545 3.34 3.801v.625h-5.244c.052 1.354.83 2.17 1.939 2.17.83 0 1.453-.365 1.644-1.111zm-1.662-4.027c-.952 0-1.661.59-1.869 1.701h3.479c-.018-.937-.554-1.7-1.61-1.7zm4.379 4.2c.224 1.493 1.47 2.395 3.27 2.395 1.73 0 2.994-.937 2.994-2.464 0-1.128-.658-1.874-1.973-2.187l-1.626-.382c-.554-.139-.796-.364-.796-.711 0-.608.622-.885 1.228-.885.796 0 1.246.347 1.402.85h1.696c-.26-1.406-1.28-2.274-3.08-2.274-1.68 0-2.908 1.024-2.908 2.413 0 1.267.814 1.857 1.904 2.117l1.592.382c.64.156.9.382.9.798 0 .608-.52.92-1.315.92-.762 0-1.333-.33-1.523-.972h-1.765z" fill="#9C9C9B"/><ellipse fill="#EF4B62" cx="11.898" cy="55.483" rx="11.898" ry="11.932"/><path d="M15.536 52.229l-6.883 6.903m0-6.903l6.883 6.903" stroke="#000" stroke-width="2" stroke-linecap="round"/><path d="M40.717 55.579c0 3.28 2.094 5.501 4.828 5.501 2.388 0 3.928-1.388 4.326-3.54h-1.765c-.415 1.145-1.142 1.909-2.56 1.909-1.887 0-3.012-1.649-3.012-3.87 0-2.24 1.142-3.87 3.011-3.87 1.42 0 2.146.763 2.561 1.89h1.765c-.398-2.134-1.92-3.522-4.326-3.522-2.734 0-4.828 2.221-4.828 5.502zm15.09-2.413c-.12-.07-.467-.139-.848-.139-.744 0-1.419.4-1.713.972v-.798h-1.73v7.706h1.73v-4.981c.173-.833.83-1.233 1.54-1.233.364 0 .779.087 1.021.26v-1.787zm4.396 10.691l4.05-10.656H62.47l-1.973 5.675-2.007-5.675h-1.852l2.976 7.914-1.09 2.742h1.679zm7.164-3.61v3.61h-1.73V53.201h1.73v.66c.346-.435 1.108-.834 1.956-.834 2.25 0 3.565 1.875 3.565 4.027s-1.315 4.026-3.565 4.026c-.848 0-1.61-.399-1.956-.833zm0-4.651v2.916a1.865 1.865 0 0 0 1.662 1.024c1.332 0 2.128-1.06 2.128-2.482 0-1.423-.796-2.482-2.128-2.482-.71 0-1.367.416-1.662 1.024zm7.528 3.228c0 1.527.97 2.256 2.337 2.256.536 0 1.003-.104 1.297-.277v-1.58c-.242.174-.64.313-.986.313-.571 0-.917-.278-.917-.903v-3.992h1.73v-1.44h-1.73v-2.066h-1.73v2.066h-1.212v1.44h1.211v4.183zm12.166-1.77c0 2.36-1.488 4.026-3.651 4.026-2.164 0-3.652-1.666-3.652-4.026s1.488-4.027 3.652-4.027c2.163 0 3.651 1.666 3.651 4.027zm-1.73 0c0-1.458-.675-2.534-1.921-2.534s-1.921 1.076-1.921 2.534c0 1.458.675 2.534 1.92 2.534 1.247 0 1.922-1.076 1.922-2.534zm12.148 3.853h2.094l-3.392-4.374 3.27-3.332h-2.214l-3.011 3.159v-6.735h-1.731v11.282h1.73v-2.552l.71-.728 2.544 3.28zm5.07-7.706h-1.73v7.706h1.73V53.2zm.208-2.326c0-.59-.502-1.059-1.073-1.059-.57 0-1.073.469-1.073 1.06 0 .59.502 1.058 1.073 1.058s1.073-.469 1.073-1.059zm2.336 7.95c0 1.526.97 2.255 2.337 2.255.536 0 1.003-.104 1.298-.277v-1.58c-.243.174-.64.313-.987.313-.57 0-.917-.278-.917-.903v-3.992h1.73v-1.44h-1.73v-2.066h-1.73v2.066h-1.212v1.44h1.211v4.183zm5.798 0c0 1.526.969 2.255 2.336 2.255.537 0 1.004-.104 1.298-.277v-1.58c-.242.174-.64.313-.986.313-.572 0-.918-.278-.918-.903v-3.992h1.73v-1.44h-1.73v-2.066h-1.73v2.066h-1.212v1.44h1.212v4.183zm7.13-5.624h-1.73v7.706h1.73V53.2zm.207-2.326c0-.59-.501-1.059-1.073-1.059-.57 0-1.073.469-1.073 1.06 0 .59.502 1.058 1.073 1.058.572 0 1.073-.469 1.073-1.059zm6.68 7.637h1.592c-.26 1.527-1.384 2.568-3.236 2.568-2.146 0-3.634-1.631-3.634-4.009 0-2.308 1.506-4.044 3.6-4.044 2.163 0 3.34 1.545 3.34 3.801v.625h-5.244c.052 1.354.83 2.17 1.938 2.17.831 0 1.454-.365 1.644-1.111zm-1.661-4.027c-.952 0-1.661.59-1.869 1.701h3.478c-.017-.937-.553-1.7-1.609-1.7zm4.378 4.2c.225 1.493 1.471 2.395 3.271 2.395 1.73 0 2.994-.937 2.994-2.464 0-1.128-.658-1.875-1.973-2.187l-1.627-.382c-.553-.139-.796-.364-.796-.711 0-.608.623-.886 1.229-.886.796 0 1.246.347 1.402.85h1.696c-.26-1.405-1.28-2.273-3.08-2.273-1.68 0-2.908 1.024-2.908 2.413 0 1.267.813 1.857 1.904 2.117l1.592.382c.64.156.9.382.9.798 0 .608-.52.92-1.316.92-.761 0-1.332-.33-1.523-.972h-1.765zm162.351-1.631c0 2.395 1.505 4.026 3.582 4.026 1.834 0 2.994-1.041 3.219-2.586h-1.73c-.14.695-.71 1.076-1.472 1.076-1.16 0-1.869-1.058-1.869-2.516s.71-2.517 1.87-2.517c.76 0 1.332.382 1.47 1.076h1.73c-.224-1.544-1.384-2.586-3.218-2.586-2.077 0-3.582 1.632-3.582 4.027zm12.633-3.888c-.121-.07-.467-.139-.848-.139-.744 0-1.42.4-1.713.972v-.798h-1.731v7.706h1.73v-4.981c.174-.833.831-1.233 1.54-1.233.364 0 .78.087 1.022.26v-1.787zm4.395 10.691l4.05-10.656h-1.783l-1.972 5.675-2.008-5.675h-1.852l2.977 7.914-1.09 2.742h1.678zm7.165-3.61v3.61h-1.73V53.201h1.73v.66c.346-.435 1.107-.834 1.955-.834 2.25 0 3.565 1.875 3.565 4.027s-1.315 4.026-3.565 4.026c-.848 0-1.609-.399-1.955-.833zm0-4.651v2.916a1.865 1.865 0 0 0 1.661 1.024c1.333 0 2.129-1.06 2.129-2.482 0-1.423-.796-2.482-2.129-2.482-.71 0-1.367.416-1.661 1.024zm7.528 3.228c0 1.527.969 2.256 2.336 2.256.537 0 1.004-.104 1.298-.277v-1.58c-.242.174-.64.313-.986.313-.572 0-.918-.278-.918-.903v-3.992h1.73v-1.44h-1.73v-2.066h-1.73v2.066h-1.212v1.44h1.212v4.183zm12.166-1.77c0 2.36-1.489 4.026-3.652 4.026-2.163 0-3.651-1.666-3.651-4.026s1.488-4.027 3.651-4.027 3.652 1.666 3.652 4.027zm-1.731 0c0-1.458-.675-2.534-1.92-2.534-1.247 0-1.922 1.076-1.922 2.534 0 1.458.675 2.534 1.921 2.534s1.921-1.076 1.921-2.534zm12.149 3.853h2.094l-3.392-4.374 3.27-3.332h-2.215l-3.01 3.159v-6.735h-1.731v11.282h1.73v-2.552l.71-.728 2.544 3.28zm5.07-7.706h-1.73v7.706h1.73V53.2zm.208-2.326c0-.59-.502-1.059-1.073-1.059s-1.073.469-1.073 1.06c0 .59.502 1.058 1.073 1.058.57 0 1.073-.469 1.073-1.059zm2.336 7.95c0 1.526.97 2.255 2.336 2.255.537 0 1.004-.104 1.298-.277v-1.58c-.242.174-.64.313-.986.313-.571 0-.917-.278-.917-.903v-3.992h1.73v-1.44h-1.73v-2.066h-1.731v2.066h-1.211v1.44h1.211v4.183zm5.797 0c0 1.526.97 2.255 2.337 2.255.536 0 1.003-.104 1.298-.277v-1.58c-.243.174-.64.313-.987.313-.571 0-.917-.278-.917-.903v-3.992h1.73v-1.44h-1.73v-2.066h-1.73v2.066h-1.212v1.44h1.211v4.183zm7.13-5.624h-1.73v7.706h1.73V53.2zm.208-2.326c0-.59-.502-1.059-1.073-1.059s-1.073.469-1.073 1.06c0 .59.502 1.058 1.073 1.058s1.073-.469 1.073-1.059zm6.68 7.637h1.592c-.26 1.527-1.384 2.568-3.236 2.568-2.146 0-3.634-1.631-3.634-4.009 0-2.308 1.505-4.044 3.6-4.044 2.162 0 3.34 1.545 3.34 3.801v.625h-5.244c.052 1.354.83 2.17 1.938 2.17.83 0 1.453-.365 1.644-1.111zm-1.661-4.027c-.952 0-1.662.59-1.87 1.701h3.479c-.017-.937-.554-1.7-1.61-1.7zm4.378 4.2c.225 1.493 1.47 2.395 3.27 2.395 1.731 0 2.994-.937 2.994-2.464 0-1.128-.657-1.875-1.972-2.187l-1.627-.382c-.554-.139-.796-.364-.796-.711 0-.608.623-.886 1.229-.886.796 0 1.246.347 1.401.85h1.696c-.26-1.405-1.28-2.273-3.08-2.273-1.679 0-2.908 1.024-2.908 2.413 0 1.267.814 1.857 1.904 2.117l1.592.382c.64.156.9.382.9.798 0 .608-.52.92-1.315.92-.762 0-1.333-.33-1.523-.972h-1.765z" fill="#9C9C9B"/><ellipse fill="#EF4B62" cx="261.226" cy="56.568" rx="11.898" ry="11.932"/><path d="M264.864 53.314l-6.883 6.903m-.001-6.903l6.884 6.903" stroke="#000" stroke-width="2" stroke-linecap="round"/><ellipse fill="#EF4B62" cx="509.432" cy="55.483" rx="11.898" ry="11.932"/><path d="M513.07 52.229l-6.883 6.903m0-6.903l6.884 6.903" stroke="#000" stroke-width="2" stroke-linecap="round"/><path d="M538.182 57.054c0 2.395 1.506 4.026 3.583 4.026 1.834 0 2.993-1.041 3.218-2.586h-1.73c-.139.695-.71 1.076-1.471 1.076-1.16 0-1.87-1.058-1.87-2.516s.71-2.517 1.87-2.517c.761 0 1.332.382 1.47 1.076h1.731c-.225-1.544-1.384-2.586-3.218-2.586-2.077 0-3.583 1.632-3.583 4.027zm12.633-3.888c-.12-.07-.467-.139-.848-.139-.744 0-1.419.4-1.713.972v-.798h-1.73v7.706h1.73v-4.981c.173-.833.83-1.233 1.54-1.233.364 0 .78.087 1.021.26v-1.787zm4.396 10.691l4.05-10.656h-1.783l-1.973 5.675-2.007-5.675h-1.852l2.977 7.914-1.09 2.742h1.678zm7.164-3.61v3.61h-1.73V53.201h1.73v.66c.347-.435 1.108-.834 1.956-.834 2.25 0 3.565 1.875 3.565 4.027s-1.315 4.026-3.565 4.026c-.848 0-1.61-.399-1.956-.833zm0-4.651v2.916a1.865 1.865 0 0 0 1.662 1.024c1.332 0 2.128-1.06 2.128-2.482 0-1.423-.796-2.482-2.128-2.482-.71 0-1.367.416-1.662 1.024zm7.528 3.228c0 1.527.97 2.256 2.337 2.256.536 0 1.003-.104 1.298-.277v-1.58c-.243.174-.64.313-.987.313-.57 0-.917-.278-.917-.903v-3.992h1.73v-1.44h-1.73v-2.066h-1.73v2.066h-1.212v1.44h1.211v4.183zm12.166-1.77c0 2.36-1.488 4.026-3.651 4.026s-3.652-1.666-3.652-4.026 1.489-4.027 3.652-4.027c2.163 0 3.651 1.666 3.651 4.027zm-1.73 0c0-1.458-.675-2.534-1.921-2.534s-1.921 1.076-1.921 2.534c0 1.458.675 2.534 1.92 2.534 1.247 0 1.922-1.076 1.922-2.534zm8.324 3.853h2.094l-3.392-4.374 3.27-3.332h-2.215l-3.01 3.159v-6.735h-1.731v11.282h1.73v-2.552l.71-.728 2.544 3.28zm5.07-7.706h-1.73v7.706h1.73V53.2zm.208-2.326c0-.59-.502-1.059-1.073-1.059s-1.073.469-1.073 1.06c0 .59.502 1.058 1.073 1.058.57 0 1.073-.469 1.073-1.059zm2.336 7.95c0 1.526.97 2.255 2.336 2.255.537 0 1.004-.104 1.298-.277v-1.58c-.242.174-.64.313-.986.313-.571 0-.917-.278-.917-.903v-3.992h1.73v-1.44h-1.73v-2.066h-1.73v2.066h-1.212v1.44h1.211v4.183zm5.797 0c0 1.526.97 2.255 2.337 2.255.536 0 1.003-.104 1.298-.277v-1.58c-.243.174-.64.313-.987.313-.57 0-.917-.278-.917-.903v-3.992h1.73v-1.44h-1.73v-2.066h-1.73v2.066h-1.212v1.44h1.211v4.183zm7.13-5.624h-1.73v7.706h1.73V53.2zm.208-2.326c0-.59-.502-1.059-1.073-1.059s-1.073.469-1.073 1.06c0 .59.502 1.058 1.073 1.058s1.073-.469 1.073-1.059zm6.68 7.637h1.592c-.26 1.527-1.384 2.568-3.236 2.568-2.146 0-3.634-1.631-3.634-4.009 0-2.308 1.505-4.044 3.6-4.044 2.162 0 3.34 1.545 3.34 3.801v.625h-5.244c.052 1.354.83 2.17 1.938 2.17.83 0 1.454-.365 1.644-1.111zm-1.661-4.027c-.952 0-1.662.59-1.87 1.701h3.479c-.017-.937-.554-1.7-1.61-1.7zm4.378 4.2c.225 1.493 1.47 2.395 3.27 2.395 1.731 0 2.995-.937 2.995-2.464 0-1.128-.658-1.875-1.973-2.187l-1.627-.382c-.554-.139-.796-.364-.796-.711 0-.608.623-.886 1.229-.886.796 0 1.246.347 1.401.85h1.696c-.26-1.405-1.28-2.273-3.08-2.273-1.679 0-2.907 1.024-2.907 2.413 0 1.267.813 1.857 1.903 2.117l1.592.382c.64.156.9.382.9.798 0 .608-.519.92-1.315.92-.761 0-1.333-.33-1.523-.972h-1.765z" fill="#9C9C9B"/></g></svg>