<svg xmlns="http://www.w3.org/2000/svg" width="25" height="25"><defs><linearGradient id="a" x1="50%" x2="50%" y1="100%" y2="0%"><stop offset="0%" stop-color="#B7FCFF"/><stop offset="100%" stop-color="#6BD2FF"/></linearGradient></defs><g fill="none" fill-rule="evenodd"><ellipse cx="12.5" cy="21" fill="#005DD4" opacity=".25" rx="8.5" ry="2"/><path fill="#4FC2FF" d="M8.25 17.983h8.352l2.197 1.93H6.454z"/><path fill="#8EDDFF" d="M8.25 6.947L6.081 4.608h12.962l-2.156 2.339z"/><path fill="url(#a)" d="M2.468 2.56h8.416v11.036H2.468z" transform="translate(5.9 4.42)"/><path fill="#4FC2FF" d="M6.056 4.855l2.286 1.97v11.192l-2.286 1.227z"/><path fill="#8EDDFF" d="M18.992 4.886V20.11l-2.39-2.106V7.101z"/><path fill="#FFF" d="M17.645 6.056l.81 13.204.498.496V5.14z"/><g fill="#4395FF"><path d="M6.284 5.409L7.789 18.82l10.963 1.244.188.596H6.284z"/><path d="M10.25 8.312v7.945h4.759l1.283 1.328H8.776L8.558 6.87z"/></g><path fill="#FFF" d="M5.9 4.689l1.063.707 10.633.708L18.82 4.89z"/><path fill="#9CFBFF" d="M8.945 7.213l1.305 1.145h4.737v7.902l1.256 1.325V6.777z"/><g stroke="#1067D7" transform="translate(5.9 3.688)"><rect width="13.259" height="16.177" x=".1" y=".615" stroke-linecap="round" stroke-linejoin="round" stroke-width="1.5" rx="2"/><path d="M2.797 3.293V13.97h7.77V3.293h-7.77z"/><path stroke-linecap="round" d="M12.737 1.197l-1.789 1.822"/><path stroke-linecap="square" d="M.742 1.324l1.66 1.519m8.351 11.365l2.35 2.074-2.35-2.074z"/><path stroke-linecap="round" d="M2.57 14.247L.514 16.123"/></g><path d="M5.754 9.8c1.622-.377 1.85-.669 2.377-2.434.404 1.593.635 1.912 2.257 2.435-1.535.433-1.708.954-2.287 2.055-.755-1.188-.725-1.651-2.347-2.055z" fill="#FFF"/></g></svg>