<svg width="360" height="40" xmlns="http://www.w3.org/2000/svg"><defs><linearGradient x1="100%" y1="69.427%" x2="0%" y2="69.427%" id="a"><stop stop-color="#FFAEAE" offset="0%"/><stop stop-color="#FF85E5" offset="34.381%"/><stop stop-color="#C087FF" offset="57.85%"/><stop stop-color="#00BDFF" offset="100%"/></linearGradient><linearGradient x1="0%" y1="69.427%" y2="69.427%" id="b"><stop stop-color="#FFAEAE" offset="0%"/><stop stop-color="#FF85E5" offset="34.381%"/><stop stop-color="#C087FF" offset="57.85%"/><stop stop-color="#00BDFF" offset="100%"/></linearGradient><linearGradient x1="-27.065%" y1="43.373%" x2="82.71%" y2="71.084%" id="c"><stop stop-color="#FF39E5" offset="0%"/><stop stop-color="#FF7ABA" offset="100%"/></linearGradient></defs><g fill="none" fill-rule="evenodd"><ellipse fill="#AF00A8" opacity=".25" cx="20" cy="37" rx="9" ry="1.5"/><path d="M20.005 1.555l15.832 18.54-8.799 10.923H9.413L.962 20.096 16.97 1.546a2 2 0 0 1 3.035.009z" fill="url(#a)" transform="rotate(-180 19.106 16.677)"/><path fill="#FFF" opacity=".254" d="M28.562 1.946l8.375 10.687-6.5-2.25h-20.5l-7.375 2.25L11 2.321z"/><path fill="#000" opacity=".59" style="mix-blend-mode:soft-light" d="M15.25 10.625l4.875 21-10.75-21 2.875-8 15.875.5L9.812 9.687z"/><path fill="#FFF" opacity=".6" style="mix-blend-mode:soft-light" d="M24.375 10.625l-4.875 21 10.75-21-2.875-8-15.875.5L29.937 9.75z"/><path fill="#000" opacity=".6" style="mix-blend-mode:soft-light" d="M5.375 12.375L19.5 31.312 2.688 13.125 12.5 2.062 6.25 11.5z"/><path fill="#FFF" style="mix-blend-mode:overlay" d="M28.25 3.125l2.125 7.125L20.25 31.5 37 12.875z"/><path fill="#000" style="mix-blend-mode:overlay" d="M11.375 3.75L9.5 10.125 20 32 3 13.125z"/><g fill="#FFF"><path d="M22.812 10.25l-11.687-4.5-1.375 4.5h7z"/><path style="mix-blend-mode:overlay" d="M10.875 4.125V6.75l-3.406-.281z"/><path d="M27.562 16.875l1.625-3.625-5.062-3.092-5.625.5zM36.125 13l-5.875-2.625-2.5-7.625z"/><path style="mix-blend-mode:overlay" d="M12.438 16l-5.063-4.5-2.75.812L15.438 22.75z"/></g><g stroke="#9C2797"><path stroke-width="1.25" stroke-linecap="square" stroke-linejoin="round" d="M12.15 2.855l-3.025 7.653 10.453 21.25m8.059-28.893l2.941 7.643-10.453 21.25"/><path stroke-width="1.25" stroke-linecap="round" d="M2.949 13.32l6.113-3.062h21.375L36.7 13.32"/><path d="M19.155 32.357L3.61 14.195a2 2 0 0 1-.007-2.593l7.048-8.324a2 2 0 0 1 1.526-.707H27.52a2 2 0 0 1 1.516.695l7.171 8.334a2 2 0 0 1 .004 2.605L20.674 32.357a1 1 0 0 1-1.519 0z" stroke-width="2" stroke-linejoin="round"/></g><g transform="translate(40)"><path d="M20.005 1.555l15.832 18.54-8.799 10.923H9.413L.962 20.096 16.97 1.546a2 2 0 0 1 3.035.009z" fill="url(#a)" transform="rotate(-180 19.106 16.677)"/><path fill="#FFF" opacity=".254" d="M28.562 1.946l8.375 10.687-6.5-2.25h-20.5l-7.375 2.25L11 2.321z"/><path fill="#000" opacity=".6" style="mix-blend-mode:soft-light" d="M13.75 10.625L20 31.687 7.313 11.562l4.937-8.937 15.875.5-20.375 7.5z"/><path fill="#FFF" opacity=".58" style="mix-blend-mode:soft-light" d="M22.875 10.625l-3.375 21 9.312-21-1.437-8-16.563.625 18.25 6.5z"/><path fill="#FFF" opacity=".85" style="mix-blend-mode:overlay" d="M28.25 3.125l.375 7L20.25 31.5 37 12.875z"/><path fill="#000" style="mix-blend-mode:overlay" d="M10.375 4.625L7.5 11.25l10 18.25L3 13.125z"/><g fill="#FFF"><path d="M16.188 10.688L9.375 7.75 7.5 10.688h5zm9.937 5.062l2.375-5.092H19z"/><path opacity=".5" d="M28.625 23.25L24.75 20 20 33.283z"/><path d="M36.125 13l-7.5-2.5-.875-7.75z"/><path style="mix-blend-mode:overlay" d="M7.5 11.375l-3.125.5 7.313 6.5z"/></g><g stroke="#9C2797"><path stroke-width="1.25" stroke-linecap="square" stroke-linejoin="round" d="M12.15 2.855l-5.025 8.153 12.453 20.75m8.059-28.893l.941 7.643-8.453 21.25"/><path stroke-width="1.25" stroke-linecap="round" d="M2.949 13.32l4.113-2.133 21.375-1.25 8.263 3.384"/><path d="M19.163 32.388L3.626 14.68a2 2 0 0 1-.039-2.593L10.682 3.5a2 2 0 0 1 1.46-.724l14.808-.61a2 2 0 0 1 1.62.718l7.663 9.203a2 2 0 0 1-.034 2.6l-15.533 17.7a1 1 0 0 1-1.503 0z" stroke-width="2" stroke-linejoin="round"/></g><ellipse fill="#AF00A8" opacity=".25" cx="20" cy="37" rx="9" ry="1.5"/></g><g transform="translate(80)"><path fill="url(#a)" d="M17.492.783l16.782 19.633-8.236 11.602H8.413L.211 20.854z" transform="rotate(-180 18.606 17.427)"/><path fill="#FFF" opacity=".254" d="M28.562 2.446l7.75 11.429-9.687-3.688-24.063 2.946L11 2.821z"/><path fill="#000" opacity=".6" style="mix-blend-mode:soft-light" d="M11.687 12.187L20 31.97 5.188 13.125l7.062-10.5h15.562L5.625 12.187z"/><path fill="#FFF" opacity=".6" style="mix-blend-mode:soft-light" d="M20 10.812l-.5 20.813 6.75-20.813 1.125-8.187-16.563.625L26.5 9.937z"/><path fill="#FFF" opacity=".254" style="mix-blend-mode:soft-light" d="M33.094 12.937L20.5 31.875 36.625 14.5z"/><path fill="#000" opacity=".254" style="mix-blend-mode:soft-light" d="M29.312 11.312L20 33.687l6.625-23.25z"/><path fill="#FFF" opacity=".6" style="mix-blend-mode:overlay" d="M26.875 2.375v7.875L20 33.125 36.75 14.5z"/><path fill="#000" style="mix-blend-mode:overlay" d="M4.625 12.625L16.5 28.5 3.25 14.375z"/><g fill="#FFF"><path d="M12.937 11.937l-5.75-2.312-1.437 2.578h5.027zM25.5 14.658l1.25-4.25-6.25.75zm9.75-1.283l-8.5-3V2.499z"/><path opacity=".674" d="M30.625 21.25l-6.25-4L20 33.283z"/><path style="mix-blend-mode:overlay" d="M5.438 13.062l-1.125.375-.688.938L10 19.312z"/></g><g stroke="#9C2797"><path stroke-width="1.25" stroke-linecap="square" stroke-linejoin="round" d="M11.373 3.792L5 13l14.578 19.258m7.297-28.893l-.297 7.143-6.453 21.75"/><path stroke-width="1.25" stroke-linecap="round" d="M3.266 14.047l1.796-1.485 21.375-2.304 9.375 3.563"/><path d="M19.162 32.883L4.077 15.63a2 2 0 0 1-.085-2.528L10.71 4.28a2 2 0 0 1 1.428-.782l14.218-1.16a2 2 0 0 1 1.745.77l7.72 9.992a2 2 0 0 1-.077 2.54L20.668 32.882a1 1 0 0 1-1.506 0z" stroke-width="2" stroke-linejoin="round"/></g><ellipse fill="#AF00A8" opacity=".25" cx="20" cy="37" rx="9.5" ry="1.5"/></g><g transform="translate(120)"><ellipse fill="#AF00A8" opacity=".25" cx="20" cy="37" rx="10" ry="1.5"/><path d="M20.003 1.59L35.46 20.097l-8.423 10.922-14.327.898L.96 20.097l15.993-18.53a2 2 0 0 1 3.049.025z" fill="url(#a)" transform="rotate(-180 19.106 17.177)"/><path fill="#FFF" opacity=".254" d="M25.625 2.437l11.25 11.938-12.812-3.813-21.5 3.071L11 3.321z"/><path fill="#000" opacity=".6" style="mix-blend-mode:soft-light" d="M10.687 13.187L20 32.563 4.188 14.125l7.062-10.5 14.5-1.094L4.625 13.187z"/><path fill="#FFF" opacity=".6" style="mix-blend-mode:soft-light" d="M18 11.812l1.656 21.157 4.594-21.157.25-8.718L9.812 4.25l14.25 6.094z"/><path fill="#FFF" opacity=".326" style="mix-blend-mode:soft-light" d="M32.687 13.062L20.5 32.375 36.625 14.5z"/><path fill="#000" opacity=".326" style="mix-blend-mode:soft-light" d="M27.437 11.812l-7.046 21.844 3.859-23.219L25 2.75l3.625 1.625-4.117 6.062z"/><path style="mix-blend-mode:overlay" d="M25.25 2.375L24 11l-4 22.5 17.125-19.125z" fill="#FFF" opacity=".45"/><g fill="#FFF"><path d="M36.5 14.5L24.75 6.875V2.499zM31.625 20l-8.5-5.5L20 33.125z"/><path style="mix-blend-mode:overlay" d="M20.25 30.562L6.75 19.75 20.25 35z"/><path d="M23.937 13.141l.25-2.25-3.75.375zM8.75 12.625L6 11.687 4.625 13z"/></g><g stroke="#9C2797"><path stroke-width="1.25" stroke-linecap="square" stroke-linejoin="round" d="M10.65 4.355l-7.525 8.653 16.453 19.75M24.937 2.5l-.812 8.375-4 21.883"/><path stroke-width="1.25" stroke-linecap="round" d="M2.949 13.82l21.239-3.132L36.7 14.32"/><path d="M19.163 33.388L3.64 15.697a2 2 0 0 1-.023-2.612L10.75 4.66a2 2 0 0 1 1.263-.69l12.428-1.65a2 2 0 0 1 1.696.588l9.9 10.17a2 2 0 0 1 .07 2.714L20.665 33.388a1 1 0 0 1-1.503 0z" stroke-width="2" stroke-linejoin="round"/></g></g><g transform="translate(160)"><ellipse fill="#AF00A8" opacity=".25" cx="20" cy="37" rx="10.5" ry="1.5"/><path d="M20.005 1.555l15.832 18.54-8.799 10.923H9.413L.962 20.096 16.97 1.546a2 2 0 0 1 3.035.009z" fill="url(#a)" transform="rotate(-180 19.106 17.427)"/><path fill="#FFF" opacity=".254" d="M28.938 4.875l8.125 9.258-14.75-2.883-19.75 2.883L11.124 4.5 21 2.875z"/><path fill="#000" opacity=".6" style="mix-blend-mode:soft-light" d="M8.438 13.187L20 33.687 3.188 14.125l7.562-9.313L21.437 3.5l-17.28 9.969z"/><path fill="#FFF" opacity=".6" style="mix-blend-mode:soft-light" d="M16.594 12.219l3 20.968 2.437-21.312-.687-8.719L8.812 4.25l13.625 7z"/><path fill="#FFF" opacity=".499" style="mix-blend-mode:soft-light" d="M31.875 13.875L20.5 32.656 36.625 14.5z"/><path fill="#000" opacity=".499" style="mix-blend-mode:soft-light" d="M26.062 12.375l-5.671 21.281 1.64-22.094-.656-8.25 7.25 1.063L22.343 11z"/><path fill="#FFF" opacity=".3" style="mix-blend-mode:overlay" d="M21.062 3.156L22 11.375 20 33.75 37.25 14.5 28.5 5z"/><path fill="#000" opacity=".15" style="mix-blend-mode:overlay" d="M21 3.25l.875 8.375-2.188 21.625L3.375 14 11 4.625z"/><g fill="#FFF"><path d="M36.625 14.375L28.5 4.25 20.875 4l.625 1.625 12.125 8.25z"/><path opacity=".804" style="mix-blend-mode:overlay" d="M17 11.75l-10.875-.625L3.25 13.75z"/><path d="M32 20.22l-10.25-6.47L21 24.875l4.625 3.158z"/><path style="mix-blend-mode:overlay" d="M20.25 29.062L6.75 18.75 20.25 34z"/></g><g stroke="#9C2797"><path stroke-width="1.25" stroke-linecap="square" stroke-linejoin="round" d="M21.125 4.365l1 7.643-2 21.25"/><path stroke-width="1.25" stroke-linecap="round" d="M3.062 13.758L21.75 11.25l14.95 3.57"/><path d="M19.155 33.857L3.638 15.727a2 2 0 0 1 .025-2.63l7.12-8.002a2 2 0 0 1 1.16-.642L20.5 3l7.287 1.442a2 2 0 0 1 1.095.62l7.264 8.034a2 2 0 0 1 .036 2.642L20.674 33.857a1 1 0 0 1-1.519 0z" stroke-width="2" stroke-linejoin="round"/></g></g><g transform="translate(200)"><ellipse fill="#AF00A8" opacity=".25" cx="20" cy="37" rx="10.5" ry="1.5"/><path d="M20.005 1.555l15.832 18.54-8.799 10.923H9.413L.962 20.096 16.97 1.546a2 2 0 0 1 3.035.009z" fill="url(#b)" transform="matrix(1 0 0 -1 1.789 34.854)"/><path fill="#FFF" opacity=".254" d="M11.062 4.875L3 14.344l14.687-3.094 19.75 2.883L28.876 4.5 19 2.875z"/><path fill="#000" opacity=".6" style="mix-blend-mode:soft-light" d="M7.812 13.875L20 33.437 3.187 14.125l7.563-9.313 8.812-1.437L3.906 14.28z"/><path fill="#FFF" opacity=".6" style="mix-blend-mode:soft-light" d="M13.437 12.5l6.125 21.062-1.625-21.875.813-8.437-7.875 1.219 7.062 6.843z"/><path fill="#FFF" opacity=".658" style="mix-blend-mode:soft-light" d="M31.375 13.375L20.5 32.875 36.625 14.5z"/><path fill="#000" opacity=".658" style="mix-blend-mode:soft-light" d="M22.687 12.187l-2.296 21.47-2.235-22.282.906-7.813 10.5 1.25-11.093 6z"/><path fill="#FFF" opacity=".15" style="mix-blend-mode:overlay" d="M29.25 4.5l7.875 9.75L20 33.75l-2-22.375 1.25-8.25z"/><path fill="#000" opacity=".3" style="mix-blend-mode:overlay" d="M19.219 3.25l-.97 8.375L20 33.125 3.375 14 11 4.625z"/><g fill="#FFF"><path d="M28.25 4.5l8.25 9.25-4.25-.5L19 5.5V3.25z"/><path opacity=".804" style="mix-blend-mode:overlay" d="M18 11.25l-10.875-.625L4.25 14.25z"/><path d="M18.5 21.908L18 12.25 32.25 21 27 27.408z"/><path style="mix-blend-mode:overlay" d="M19.531 26.938L6.25 17.25l13.5 15.875z"/></g><g stroke="#9C2797"><path stroke-width="1.25" stroke-linecap="square" stroke-linejoin="round" d="M18.875 4.365l-1 7.643 2 21.25"/><path stroke-width="1.25" stroke-linecap="round" d="M36.938 13.758L18.25 11.25 3.3 14.82"/><path d="M20.845 33.857l15.517-18.13a2 2 0 0 0-.025-2.63l-7.12-8.002a2 2 0 0 0-1.16-.642L19.5 3l-7.287 1.442a2 2 0 0 0-1.095.62l-7.264 8.034a2 2 0 0 0-.036 2.642l15.508 18.119a1 1 0 0 0 1.519 0z" stroke-width="2" stroke-linejoin="round"/></g></g><g transform="translate(240)"><ellipse fill="#AF00A8" opacity=".25" cx="20" cy="37" rx="10" ry="1.5"/><path d="M20.003 1.59L35.46 20.097l-8.423 10.922-14.327.898L.96 20.097l15.993-18.53a2 2 0 0 1 3.049.025z" fill="url(#b)" transform="matrix(1 0 0 -1 1.789 34.354)"/><path fill="#FFF" opacity=".254" d="M14.375 2.437L3.125 14.375l12.812-3.813 21.5 3.071L29 3.321z"/><path fill="url(#c)" transform="rotate(180 10.793 17.177)" d="M6.711 32.354l-.875-9.25-4.25-21.875 16.625 19.125z"/><path fill="#000" opacity=".59" style="mix-blend-mode:soft-light" d="M6.937 13.25L20 32.937 3.187 14.125 15 2.187l.375 3.438-11.25 8.5z"/><path fill="#FFF" opacity=".6" style="mix-blend-mode:soft-light" d="M12.375 11.844l7.297 21.562-3.922-22.312-.313-8.72-3.062 2 3.062 6.188zm18 1.531L20 32.375 36.625 14.5z"/><path fill="#000" opacity=".59" style="mix-blend-mode:soft-light" d="M20.375 11.562v20.594L15.844 10.75 15.375 3 29.5 4.375 16.219 10.28z"/><g fill="#FFF"><path d="M20.75 2.5l13.224 6.974 1.901 3.651-9.5-1.125-10.75-5.812L15 1.75z"/><path opacity=".804" style="mix-blend-mode:overlay" d="M15.969 9.094l-7.844-.469L5.25 11.25l7.719.219 2.781-1.031z"/><path d="M16.375 15.408l-.25-4.5h4.125l12.875 8.625-4 4.75z"/><path style="mix-blend-mode:overlay" d="M18.562 25.219L5.25 16.249l13.937 15.626z"/></g><g stroke="#9C2797"><path stroke-width="1.25" stroke-linecap="square" stroke-linejoin="round" d="M29.35 4.355l7.525 8.653-16.453 19.75M15.063 2.5l.812 8.375 4 21.883"/><path stroke-width="1.25" stroke-linecap="round" d="M37.051 13.82l-21.239-3.132L3.3 14.32"/><path d="M20.837 33.388L36.36 15.697a2 2 0 0 0 .023-2.612L29.25 4.66a2 2 0 0 0-1.263-.69L15.558 2.32a2 2 0 0 0-1.696.588l-9.9 10.17a2 2 0 0 0-.07 2.714l15.442 17.597a1 1 0 0 0 1.503 0z" stroke-width="2" stroke-linejoin="round"/></g></g><g transform="translate(280)"><path fill="url(#b)" d="M17.492.783l16.782 19.633-8.236 11.602H8.413L.211 20.854z" transform="matrix(1 0 0 -1 2.789 34.854)"/><path fill="#FFF" opacity=".254" d="M11.438 2.446l-7.75 11.429 9.687-3.688 24.063 2.946L29 2.821z"/><path fill="url(#c)" opacity=".6" transform="rotate(180 10.106 17.427)" d="M6.961 32.854l-.5-8.75L.211 1.729l17 20z"/><path fill="#000" opacity=".6" style="mix-blend-mode:soft-light" d="M6.437 13.312l13.563 19L3.187 14.125l9.875-11.75v3.25l-8.937 8.5z"/><path fill="#FFF" opacity=".6" style="mix-blend-mode:soft-light" d="M10.625 11.5L20 33.687l-6.438-22.812-.687-8.313L11.312 4l1.563 6.562z"/><path fill="#FFF" opacity=".6" style="mix-blend-mode:soft-light" d="M29.813 11.875L19.53 33.062 35 12.5l-6.75-9.25-15.625-.5 21.219 9.125z"/><path fill="#000" opacity=".55" style="mix-blend-mode:soft-light" d="M17.906 11.062l2.469 21.094-7-21.906V2.625l15.937 1.562L13.75 9.781z"/><path style="mix-blend-mode:overlay" d="M28.25 3.125l6.625 10L20 32.25l17-17.625z" fill="#FFF"/><g fill="#FFF"><path d="M33.75 12.75L20.1 10.813l-6.68-3.391-.32-4.823H16l17.75 8.214z"/><path style="mix-blend-mode:overlay" d="M13.25 7.625H8.625L5.75 10.25h7.5l.5-.875z"/><path d="M14.125 10.408l9.631 1.04 7.869 5.927-3.125 3.842z"/><path style="mix-blend-mode:overlay" d="M16.75 21.875l-13-8.625 5.375 7.937 9.625 7.25z"/></g><g stroke="#9C2797"><path stroke-width="1.25" stroke-linecap="square" stroke-linejoin="round" d="M28.627 3.792L35 13 20.422 32.258M13.125 3.365l.297 7.143 6.453 21.75"/><path stroke-width="1.25" stroke-linecap="round" d="M36.734 14.047l-1.796-1.485-21.375-2.304-9.375 3.563"/><path d="M20.838 32.883L35.923 15.63a2 2 0 0 0 .085-2.528L29.29 4.28a2 2 0 0 0-1.428-.782l-14.218-1.16a2 2 0 0 0-1.745.77L4.18 13.1a2 2 0 0 0 .077 2.54l15.076 17.243a1 1 0 0 0 1.506 0z" stroke-width="2" stroke-linejoin="round"/></g><ellipse fill="#9C2797" opacity=".25" cx="20" cy="37" rx="9.5" ry="1.5"/></g><g transform="translate(320)"><path d="M20.005 1.555l15.832 18.54-8.799 10.923H9.413L.962 20.096 16.97 1.546a2 2 0 0 1 3.035.009z" fill="url(#b)" transform="matrix(1 0 0 -1 1.789 33.354)"/><path fill="#FFF" opacity=".254" d="M11.438 1.946L3.063 12.633l6.5-2.25h20.5l7.375 2.25L29 2.321z"/><path fill="url(#c)" opacity=".63" transform="rotate(180 10.606 16.677)" d="M8.711 30.604l1.125-7.5-8.625-21.5 17 18.625z"/><path fill="#000" opacity=".6" style="mix-blend-mode:soft-light" d="M5.937 12.312l13.563 19L2.687 13.125l9.875-11.75-.437 4.687L4 13.125z"/><path fill="#000" opacity=".59" style="mix-blend-mode:soft-light" d="M15.281 10.031l5.125 21.656-9.031-21.437 1-7.625 16.125.719-16.531 6.062z"/><path fill="#FFF" opacity=".6" style="mix-blend-mode:soft-light" d="M8.937 10.875L20 33.062l-8.563-22.75-.625-.25zm18.313.312L20 31.5l12.75-19.938-4.5-8.312-16.5-.688 21 8.313z"/><path style="mix-blend-mode:overlay" d="M28.25 3.125l4.5 8.375L20 32.25l17-17.625z" fill="#FFF"/><g fill="#FFF"><path d="M28.875 10.875l-10.812-.5-6.438-2.437.25-3.938z"/><path style="mix-blend-mode:overlay" d="M12.25 6.125H9.125L6.25 8.75h5.375z"/><path d="M16.375 10.658l7.625.125 6.5 4.375-2.75 3.75zM33 11.375l3.125.875L30 3.875z"/><path style="mix-blend-mode:overlay" d="M14.437 17.375l-9.625-4.563-1.875.625L6 17.812l10.312 4.938z"/></g><g stroke="#9C2797"><path stroke-width="1.25" stroke-linecap="square" stroke-linejoin="round" d="M27.85 2.855l5.025 8.153-12.453 20.75M12.363 2.865l-.941 7.643 8.453 21.25"/><path stroke-width="1.25" stroke-linecap="round" d="M37.051 13.32l-4.113-2.133-21.375-1.25L3.3 13.321"/><path d="M20.837 32.388L36.374 14.68a2 2 0 0 0 .039-2.593L29.318 3.5a2 2 0 0 0-1.46-.724l-14.808-.61a2 2 0 0 0-1.62.718l-7.663 9.203a2 2 0 0 0 .034 2.6l15.533 17.7a1 1 0 0 0 1.503 0z" stroke-width="2" stroke-linejoin="round"/></g><ellipse fill="#9C2797" opacity=".25" cx="20" cy="37" rx="9" ry="1.5"/></g></g></svg>