<svg width="21" height="20" xmlns="http://www.w3.org/2000/svg"><defs><linearGradient x1="96.89%" y1="69.427%" x2="-3.986%" y2="69.427%" id="a"><stop stop-color="#FFAEAE" offset="0%"/><stop stop-color="#FF6DDF" offset="35.014%"/><stop stop-color="#C087FF" offset="59.301%"/><stop stop-color="#00BDFF" offset="100%"/></linearGradient><linearGradient x1="96.89%" y1="69.427%" x2="-3.986%" y2="69.427%" id="b"><stop stop-color="#FFAEAE" offset="0%"/><stop stop-color="#FF7AE2" offset="35.014%"/><stop stop-color="#C087FF" offset="59.301%"/><stop stop-color="#00FFE9" offset="100%"/></linearGradient></defs><g transform="translate(-2 -3)" fill="none" fill-rule="evenodd"><ellipse fill="#AF00A8" opacity=".25" cx="12.5" cy="21.5" rx="7.5" ry="1.5"/><path d="M11.31 1.647l7.682 8.96-3.71 1.583H4.186L.51 10.607l7.77-8.968a2 2 0 0 1 3.03.008z" fill="url(#a)" transform="rotate(-180 11.174 10.33)"/><path fill="url(#b)" d="M5.114 16.575l-4.836-5.87 3.776 1.202 10.997.25 3.842-1.253-4.273 5.67z" transform="rotate(-180 11.174 10.33)"/><path fill="#FFF" opacity=".254" d="M17.233 4.081l4.439 5.641-3.445-1.187H7.363L3.454 9.722 7.926 4.28z"/><g fill="#000"><path style="mix-blend-mode:soft-light" d="M8.482 4.477l8.592.106L7.05 8.521z"/><path style="mix-blend-mode:soft-light" d="M7.76 4.774l-4.372 5.278 8.744 9.435L4.945 9.49z"/></g><path fill="#FFF" opacity=".5" style="mix-blend-mode:soft-light" d="M16.895 4.477H8.08l10.245 4.044z"/><path fill="#FFF" style="mix-blend-mode:overlay" d="M16.703 4.28l1.508 4.205h-1.508z"/><path fill="#FFF" style="mix-blend-mode:soft-light" d="M14.576 8.6l-1.963 11.02L18.16 8.6z"/><path fill="#000" opacity=".752" style="mix-blend-mode:soft-light" d="M10.059 8.406l2.65 11.198L7.013 8.406z"/><path fill="#FFF" style="mix-blend-mode:overlay" d="M7.098 8.502l5.233 11.48L5.74 9.03l2.066-4.336zm9.556.115l1.474-.115-5.664 11.282z"/><path fill="#FFF" style="mix-blend-mode:overlay" d="M17.664 5.17l2.22 3.926-6.692 10.358 8.877-9.666z"/><g stroke="#9C2797"><path stroke-linecap="square" stroke-linejoin="round" d="M8.257 4.18L6.932 8.6l5.54 11.217M16.977 4.18l1.325 4.42-5.54 11.217"/><path stroke-linecap="round" d="M3.394 10.085L6.9 8.47h11.328l3.714 1.616"/><path d="M12.65 20.601L3.72 10.498a1 1 0 0 1-.028-1.292l3.502-4.318a2 2 0 0 1 1.553-.74h7.743a2 2 0 0 1 1.543.727l3.568 4.33a1 1 0 0 1-.022 1.298L12.65 20.601z" stroke-width="1.5" stroke-linejoin="round"/></g><path d="M8.094 8.553c-1.075.845-1.056.855-1.27 2.2-.874-.972-.915-1.007-2.244-1.295.97-.837.98-.855 1.27-2.2.886 1.011.872 1.015 2.244 1.295z" fill="#FFF"/></g></svg>