<svg xmlns="http://www.w3.org/2000/svg" width="40" height="40"><defs><linearGradient id="a" x1="50%" x2="50%" y1="100%" y2="0%"><stop offset="0%" stop-color="#FFFBAB"/><stop offset="100%" stop-color="#FFC455"/></linearGradient></defs><g fill="none" fill-rule="evenodd"><ellipse cx="20" cy="36" fill="#BB4900" opacity=".25" rx="14" ry="2.5"/><path fill="#FFE981" d="M7.327 6.674l11.935-5.022L31.12 6.486l4.833 11.857-5.021 11.935L18.997 35.3 7.139 30.466 2.306 18.61z"/><path fill="url(#a)" d="M20.816 10.345l7.961 3.03 3.298 7.314-3.298 7.315-7.961 3.03-7.961-3.03-3.298-7.315 3.298-7.315z" transform="translate(-1.686 -2.213)"/><path fill="#FFFA89" d="M19.322 2.181l-.012 5.504 8.077 3.139 3.178 7.6 5.518-.012L31.078 6.77z"/><path fill="#FFC75D" d="M2.732 18.567l5.112-.01 3.148 7.6 8.188 3.3-.013 5.828L7.33 30.212z"/><path fill="#000" d="M19.681 34.923L9.542 28.724l-4.074-9.668L7.792 7.308l-4.93 11.725 4.24 11.117z" style="mix-blend-mode:soft-light"/><path stroke="#FFCD5B" stroke-width="2.5" d="M12.224 12.529l-2.973 6.479 3.11 6.741 7.027 2.455 7.053-2.579 3.032-6.308-3.055-6.64-7.123-2.913-7.07 2.765z"/><path fill="#FFF" d="M19.111 2.882l10.25 6.056 4.007 9.63-2.495 11.831 5.153-11.85-5.658-11.533z" style="mix-blend-mode:overlay"/><path fill="#FFFFD3" d="M11.281 11.625l7.994-3.79 8.075 3.181 3.41 7.647-3.53 7.602-1.761-1.577L27.906 19l-2.625-5.531-6.006-2.594-6.369 2.594z"/><path fill="#FFF" d="M28.668 28.554l-9.99 6.194 12.292-4.167z"/><g stroke="#BA5718" stroke-linecap="round"><path stroke-linejoin="round" stroke-width="2" d="M19.357 2.325L31.43 7.171l5 11.7-5 11.7-12.072 4.845L7.286 30.57l-5-11.7 5-11.699z"/><path stroke-linejoin="round" stroke-width="1.5" d="M19.336 8.278l8.122 3.102 3.364 7.49-3.364 7.49-8.122 3.103-8.121-3.102-3.365-7.49 3.365-7.49z"/><path stroke-width="1.5" d="M19.357 2.987v5.295m0 21.178v5.294m-7.921-8.281L7.428 30.4m3.849-18.934l-3.85-4.063m19.96 19.151l3.845 3.926m-3.681-19.151l4.254-4.087"/></g><path d="M7.712 13.276c2.625-1.07 2.594-1.103 3.79-3.66 1.185 2.435 1.246 2.53 3.727 3.86-2.409 1.114-2.44 1.144-3.79 3.66-1.184-2.521-1.154-2.52-3.727-3.86z" fill="#FFF"/></g></svg>