<svg width="33" height="35" xmlns="http://www.w3.org/2000/svg"><g fill="none" fill-rule="evenodd"><path d="M12.498 33.076c4.311 1.758 11.438 1.584 15.938 0-3.278-4.38-11.063-6.643-15.938 0z" fill="#D5BF95"/><path d="M12.549 32.643c3.388-4.353 11.7-4.295 15.524 0" stroke="#8E6E5A" stroke-width="1.75" stroke-linecap="round" stroke-linejoin="round"/><g fill="#B8E572"><path d="M21.9 23.542C14.693 23.92.835 17.912 1.726 1.253 21.492-1.684 28.957 18.757 21.9 23.543z"/><path d="M21.9 23.542c2.129-2.377 2.753-2.41 2.465-7.902-.86-4.461-1.943-6.032-3.817-7.712C22.732 4.812 26.17 2.206 31.07 1.27c3.3 4.805.864 16.476-9.17 22.271z"/></g><g fill="#6CBF47"><path d="M21.9 23.542C14.693 23.92 1.453 18.12 2.344 1.461c1.163 8.97 11.607 21.182 21.526 19.725 1.571-.23-.476 1.497-1.968 2.356z"/><path d="M21.966 6.033c2.502.136 7.519 11.246 2.968 15.633-.464.447-.987.608-1.569.483.63-3.684.807-6.191.531-7.52-.276-1.33-1.442-3.588-3.497-6.775.813-1.227 1.335-1.834 1.567-1.821z"/></g><path d="M1.934 1.93c10.545.251 18.563 5.589 21.416 17.018-.324-6.18-3.214-12.443-7.75-15.392S7.572 1.1 1.934 1.931zm27.073-.414c1.09 2.884 2.046 6.795.726 13.843 3.522-6.841 2.163-4.963 2.097-8.873-.045-2.607-.237-4.303-.579-5.088-1.522-.433-2.27-.394-2.244.118z" fill="#F7FFCF"/><g stroke="#445E23" stroke-linejoin="round"><path d="M20.998 31.195C21.87 22.677 18.16 12.833 7.87 6.116" stroke-width="1.5" stroke-linecap="round"/><path d="M20.914 23.832c-7.208.377-20.08-5.92-19.19-22.579 19.768-2.937 26.246 17.793 19.19 22.579z" stroke-width="1.75"/><path d="M20.129 7.997C22.45 4.696 25.917 1.61 31.282 1.33c1.598 6.691 1.292 18.074-10.33 22.375" stroke-width="1.75"/><path d="M26.72 8.136c-1.447 1.783-2.547 3.842-3.3 6.177" stroke-linecap="round"/></g></g></svg>