<svg width="19" height="19" xmlns="http://www.w3.org/2000/svg"><g fill="none" fill-rule="evenodd"><path d="M6.772 18.04c2.351.931 6.238.839 8.693 0-1.788-2.318-6.034-3.517-8.693 0z" fill="#D5BF95"/><path d="M6.8 17.81c1.848-2.304 6.382-2.273 8.467 0" stroke="#8E6E5A" stroke-width="1.2" stroke-linecap="round" stroke-linejoin="round"/><g fill="#B8E572"><path d="M11.894 12.99C7.962 13.196.409 10.026.908 1.206 11.692-.366 15.746 10.45 11.894 12.99z"/><path d="M11.894 12.99c1.163-1.26 1.503-1.279 1.35-4.186-.465-2.362-1.054-3.192-2.075-4.08 1.194-1.652 3.072-3.035 5.745-3.534 1.796 2.541.457 8.723-5.02 11.8z"/></g><g fill="#6CBF47"><path d="M11.894 12.99C7.962 13.196.746 10.135 1.245 1.315 1.872 6.063 7.558 12.52 12.97 11.74c.858-.124-.26.792-1.075 1.249z"/><path d="M11.944 3.719c1.365.07 4.092 5.948 1.606 8.275-.254.237-.539.322-.856.257.346-1.951.445-3.279.296-3.982-.15-.704-.784-1.899-1.902-3.584.444-.65.73-.973.856-.966z"/></g><path d="M1.022 1.564c5.751.124 10.12 2.943 11.666 8.992-.172-3.271-1.742-6.586-4.214-8.143C6.003.856 4.098 1.12 1.022 1.564zm14.766-.242c.592 1.526 1.11 3.596.385 7.328 1.926-3.625 1.183-2.63 1.15-4.7-.021-1.38-.125-2.277-.31-2.693-.83-.228-1.239-.206-1.225.065z" fill="#F7FFCF"/><g stroke="#445E23" stroke-linejoin="round"><path d="M11.395 17.042c.483-4.51-1.532-9.72-7.14-13.267" stroke-linecap="round"/><path d="M11.356 13.144C7.424 13.35.409 10.026.908 1.206c10.784-1.572 14.3 9.398 10.448 11.938z" stroke-width="1.2"/><path d="M10.94 4.76c1.27-1.75 3.163-3.386 6.089-3.54.866 3.542.69 9.57-5.653 11.856" stroke-width="1.2"/><path d="M14.535 4.829a9.98 9.98 0 0 0-1.805 3.273" stroke-linecap="round"/></g></g></svg>