<svg xmlns="http://www.w3.org/2000/svg" width="25" height="25"><defs><linearGradient id="a" x1="50%" x2="50%" y1="100%" y2="0%"><stop offset="0%" stop-color="#F2D0FF"/><stop offset="100%" stop-color="#B89EFF"/></linearGradient></defs><g fill="none" fill-rule="evenodd"><ellipse cx="12.5" cy="21" fill="#4F00C9" opacity=".25" rx="8.5" ry="2"/><path fill="#C497FF" d="M13.096 2.819l5.645 2.827a1.5 1.5 0 0 1 .829 1.341v9.601a1.5 1.5 0 0 1-.855 1.354l-5.645 2.693a1.5 1.5 0 0 1-1.292 0l-5.645-2.693a1.5 1.5 0 0 1-.854-1.354v-9.6a1.5 1.5 0 0 1 .828-1.342l5.645-2.827a1.5 1.5 0 0 1 1.344 0z"/><path fill="url(#a)" d="M7.59 3.44l4.43 1.97v7.487l-4.43 1.986-4.428-2.079V5.41z" transform="translate(4.833 2.551)"/><path fill="#DCB9FF" d="M12.553 2.771l6.772 3.406-2.243 1.83-4.529-2.159V2.771zm4.529 5.237l2.368-1.739-.125 10.825-2.243-1.646v-7.44z"/><path fill="#AE92FF" d="M5.511 6.455L7.748 8.1l.18 7.418 4.54 2.204v2.837L5.51 17.303z"/><path fill="#8970FF" d="M12.136 20.247L7.054 16.39 5.77 6.265l-.296 11.137z"/><path fill="#000" d="M16.996 15.305l-1.678-1.133-2.96 1.398-2.837-1.398v-4.87L7.818 7.808v7.328l4.573 2.29z" opacity=".5" style="mix-blend-mode:overlay"/><g fill="#FFF"><path d="M12.777 3.276l5.083 3.857 1.283 10.125.296-11.138z"/><path d="M7.843 7.904l1.678 1.398 2.96-1.398 2.837 1.398v4.87l1.703 1.181v-7.28l-4.573-2.29z" opacity=".5" style="mix-blend-mode:overlay"/></g><g stroke="#6D38BF" stroke-linecap="round"><path stroke-linejoin="round" stroke-width="1.5" d="M13.084 2.806l5.646 2.768a1.5 1.5 0 0 1 .84 1.346v9.586a1.5 1.5 0 0 1-.84 1.346l-5.646 2.768a1.5 1.5 0 0 1-1.32 0l-5.646-2.768a1.5 1.5 0 0 1-.84-1.346V6.92a1.5 1.5 0 0 1 .84-1.346l5.646-2.768a1.5 1.5 0 0 1 1.32 0z"/><path stroke-linejoin="round" d="M12.424 5.803L17 8.017v7.392l-4.575 2.213L7.85 15.41V8.017z"/><path d="M12.424 2.852v2.954m0 11.814v2.954m-4.631-5.01l-2.237 1.793m2.259-9.442L5.493 6.17m11.517 9.14l2.395 1.993m-2.372-9.342l2.116-1.791"/></g><path d="M5.444 8.662c1.612-.703 1.593-.722 2.316-2.316.743 1.48.782 1.537 2.317 2.316-1.478.726-1.497.745-2.316 2.317-.743-1.534-.724-1.534-2.317-2.317z" fill="#FFF"/></g></svg>