<svg data-name="Layer 1" xmlns="http://www.w3.org/2000/svg" xmlns:xlink="http://www.w3.org/1999/xlink" width="350" height="350"><defs><clipPath id="c"><path d="M213.29 187.69c0 24-16.47 37.26-36.79 37.26s-36.79-13.25-36.79-37.26S160 138 176.5 138s36.79 25.68 36.79 49.69z" fill="#fff" stroke="#000" stroke-miterlimit="10" stroke-width="2.358"/></clipPath><linearGradient id="b" x1="193.03" y1="170.01" x2="193.03" y2="195.58" gradientUnits="userSpaceOnUse"><stop offset="0" stop-color="#82b6ff"/><stop offset="1" stop-color="#7e8cff"/></linearGradient><linearGradient id="a" x1="156.01" y1="146.12" x2="169.52" y2="146.12" gradientUnits="userSpaceOnUse"><stop offset="0" stop-color="#82b5ff"/><stop offset="1" stop-color="#82cfff"/></linearGradient><linearGradient id="d" x1="178.13" y1="148.29" x2="201.18" y2="148.29" xlink:href="#a"/><linearGradient id="e" x1="157.49" y1="158.43" x2="129.79" y2="204.61" xlink:href="#b"/><linearGradient id="f" x1="177.9" y1="230.92" x2="177.9" y2="205.66" gradientUnits="userSpaceOnUse"><stop offset="0" stop-color="#7e8cff"/><stop offset="1" stop-color="#a2a0ff"/></linearGradient></defs><circle cx="174.5" cy="178" r="130" fill="#e9e3f9"/><ellipse cx="176.5" cy="223.77" rx="36.82" ry="8.23" fill="#bebee5"/><path d="M213.29 187.69c0 24-16.47 37.26-36.79 37.26s-36.79-13.25-36.79-37.26S160 138 176.5 138s36.79 25.68 36.79 49.69z" fill="#fff"/><g clip-path="url(#c)"><ellipse cx="193.03" cy="180.04" rx="8.85" ry="10.03" fill="url(#b)"/><ellipse cx="168.12" cy="197" rx="4.66" ry="4.78" fill="#9790ff"/><ellipse cx="170.45" cy="167.86" rx="4.19" ry="4.3" fill="#9790ff"/><ellipse cx="162.76" cy="146.12" rx="6.75" ry="7.41" fill="url(#a)"/><path d="M184 137.76c-4.19 8.6-7.72 18.54-4.66 20.54 5.13 3.35 16.77-10.51 21.89-15.28" fill="url(#d)"/><path d="M144.37 154.48c7.92 7.17 23.57 28.05 10.71 33.44-10.24 4.3-19.09-16.24-20.49-20.06" fill="url(#e)"/><path d="M146 213.25c14.9-5.74 18.9-2 26.54 1.91 5.59 2.86 11.64-6.69 17.7-8.6s11.64-1 19.55 4.77l-17.69 19.59h-27z" fill="url(#f)"/><path d="M162.88 143.73c-14.81 20.07-20.54 46.34-6.68 62.11 12.6 14.34 39.65 11.31 49.44 6.13v18.71h-68.55v-87z" opacity=".12"/></g><path d="M213.29 187.69c0 24-16.47 37.26-36.79 37.26s-36.79-13.25-36.79-37.26S160 138 176.5 138s36.79 25.68 36.79 49.69z" fill="none" stroke="#000" stroke-miterlimit="10" stroke-width="2.358"/></svg>