<svg xmlns="http://www.w3.org/2000/svg" width="18" height="15"><g fill="none" fill-rule="evenodd"><path fill="#C4C3C0" d="M9.812 5.272c.53-.84 1.369-1.043 1.976-1.066.48-.018.908-.34 1.103-.826a1.08 1.08 0 0 0-.153-1.08C12.252 1.715 11.19.887 9.076.904c-2.152.017-3.312.883-3.854 1.471-.255.278-.34.695-.215 1.068.177.528.593.885 1.078.926 1.625.14 2.066.976 2.066.976.047.06.099.113.153.16.772.506 1.485-.195 1.508-.232z"/><path stroke="#C4C3C0" stroke-linecap="round" stroke-width="1.5" d="M9.013 4.5c-.225 4.669 2.085 6.558 4.56 6.39 1.65-.113 2.813-1.07 3.488-2.87"/><path stroke="#C4C3C0" stroke-linecap="round" stroke-width="1.5" d="M8.948 4.5c.225 4.669-2.086 6.558-4.56 6.39C2.737 10.777 1.574 9.82.9 8.02"/><path fill="#C4C3C0" d="M6.75 11.967c0 1.477 1.139 2.405 2.25 2.405s2.25-.993 2.25-2.405v-1.955C10.216 8.737 9.466 8.1 9 8.1c-.466 0-1.216.637-2.25 1.912v1.955z"/></g></svg>