<svg width="45" height="45" xmlns="http://www.w3.org/2000/svg" xmlns:xlink="http://www.w3.org/1999/xlink"><defs><path d="M4.529 10h11l-4.4 11.143c-.185.571-.552.857-1.1.857s-.915-.286-1.1-.857L4.529 10z" id="a"/><ellipse id="b" cx="10" cy="9.5" rx="6" ry="2.5"/></defs><g fill="none" fill-rule="evenodd"><circle fill="#FFB77A" cx="22.5" cy="22.5" r="22.5"/><ellipse fill-opacity=".503" fill="#000" style="mix-blend-mode:soft-light" cx="20.9" cy="30.625" rx="9.188" ry="2.625"/><g transform="rotate(45 4.429 32.9)"><use fill="#FCDF35" xlink:href="#a"/><path stroke="#2A2825" d="M3.794 9.5h12.47l-.27.684-4.39 11.113c-.25.772-.803 1.203-1.575 1.203-.772 0-1.326-.431-1.565-1.174L3.794 9.5z"/><path d="M4.529 10h8l-1.4 11.143c-.185.571-.552.857-1.1.857s-.915-.286-1.1-.857L4.529 10z" fill="#FFF2A9"/><use fill="#FCDF35" xlink:href="#b"/><ellipse stroke="#2A2825" cx="10" cy="9.5" rx="6.5" ry="3"/><path d="M10 12c3.314 0 6-1.12 6-2.5 0-.38-2.686-1.5-6-1.5s-5.872 2.09-5.638 2.357C5.202 11.316 7.409 12 10 12z" fill="#DFC321"/><path d="M11.5 10.5c.017-1.232.56-2.382 1.626-3.449C14.193 5.984 15.484 5.301 17 5m-9-.5c.3-.558.87-1.068 1.707-1.532.838-.465.187-.783-1.952-.955l3.098-1.94M8.5 10.5c-.016-1.008-.508-1.949-1.478-2.822S4.878 6.246 3.5 6" stroke="#2A2825" stroke-linecap="round" stroke-linejoin="round"/><circle fill="#2A2825" cx="18" cy="7" r="1"/><circle fill="#2A2825" cx="14" cy="3" r="1"/><circle fill="#2A2825" cx="4" cy="2" r="1"/><circle fill="#2A2825" cx="1" cy="8" r="1"/></g></g></svg>