<svg width="54" height="44" xmlns="http://www.w3.org/2000/svg" xmlns:xlink="http://www.w3.org/1999/xlink"><defs><rect id="a" x=".5" width="53" height="18.136" rx="9.068"/><rect id="b" x=".5" width="53" height="18.136" rx="9.068"/></defs><g fill="none" fill-rule="evenodd"><g transform="translate(0 25.864)"><rect fill="#E96BD4" x=".5" width="53" height="18.136" rx="9.068"/><use fill="#E96BD4" xlink:href="#a"/><rect stroke="#D447AA" stroke-width="5.5" x="3.25" y="2.75" width="47.5" height="12.636" rx="6.318"/><path d="M1.625 8.471C4.75 4.772 7.25 3.937 8.875 3.937h35.75c3.25 0 7.625 2.148 7.625 4.534-.167-1.511-1.042-3.221-2.625-5.13L46 .834H7.612L4 3.34C2.5 6.76 1.708 8.471 1.625 8.471z" fill="#FFF"/><rect stroke="#2A2825" stroke-width="2.5" x="1.75" y="1.25" width="50.5" height="15.636" rx="7.818"/></g><rect fill="#E96BD4" x=".5" width="53" height="18.136" rx="9.068"/><use fill="#E96BD4" xlink:href="#b"/><rect stroke="#D447AA" stroke-width="5.5" x="3.25" y="2.75" width="47.5" height="12.636" rx="6.318"/><path d="M1.625 8.471C4.75 4.772 7.25 3.937 8.875 3.937h35.75c3.25 0 7.625 2.148 7.625 4.534-.167-1.511-1.042-3.221-2.625-5.13L46 .834H7.612L4 3.34C2.5 6.76 1.708 8.471 1.625 8.471z" fill="#FFF"/><rect stroke="#2A2825" stroke-width="2.5" x="1.75" y="1.25" width="50.5" height="15.636" rx="7.818"/></g></svg>