<svg width="12" height="13" xmlns="http://www.w3.org/2000/svg"><g transform="rotate(-50 6.587 5.682)" fill="none" fill-rule="evenodd"><path d="M5.84 7.96c-1.7-.66-3.4-1.8-3.4-2.5 0-1.27 5-3.4 7.04-2.97 2.04.43 3.02 2.17 3.02 2.98 0 .8-.7 2.53-3.02 2.97-.47.1-.9.1-1.45 0" stroke="#363431" stroke-width=".75" stroke-linecap="round" stroke-linejoin="round"/><path d="M5.4 3.65l-.2-.76a.965.965 0 0 1 .64-1.2c.52-.18.9-.3 1.15-.4.37-.15.7-.5.95-1.07L9.37 2.5" stroke="#363431" stroke-width=".75" stroke-linejoin="round"/><path d="M3.2 4.68C2 3.43 1.12 2.95.52 3.22c-.9.4-.1 1.78.7 2.22-.8.46-1.54 1.68-.7 2.3.55.4 1.44-.15 2.66-1.64" stroke="#363431" stroke-width=".75"/><circle fill="#363431" cx="10.16" cy="4.99" r="1"/><path d="M6.67 6.97c-.1.27-.34.82-.7 1.66 1.06.17 2.04-.08 2.92-.76" stroke="#363431" stroke-width=".75" stroke-linecap="round" stroke-linejoin="round"/></g></svg>