<svg xmlns="http://www.w3.org/2000/svg" width="22" height="22"><g fill="none" fill-rule="evenodd" transform="translate(2.47 2.439)"><path stroke="#2A2825" stroke-width=".75" d="M8.523 3.157C5.895 2.604 1.975 1.81 2.72.464c.945-1.705 3.918 1.793 6.015 2.397 3.33.959 3.196 1.014-.212.296z"/><path stroke="#2A2825" stroke-width=".75" d="M8.2 3.18c2.627-.553 6.45-1.371 5.705-2.716-.945-1.705-3.919 1.793-6.016 2.397-3.33.959-3.097 1.037.31.32z"/><path fill="#FF7694" d="M.692 5.904L.825 3.2l15.35-.25.414 4.258h-.145a1 1 0 0 0-.999 1.052l.399 7.734a1 1 0 0 1-.999 1.051H2.21a1 1 0 0 1-.999-1.06l.547-9.032h-.067a1 1 0 0 1-1-1.049z"/><path stroke="#FFD300" stroke-linecap="square" stroke-width="3" d="M8.523 4.399v11.373"/><path fill="#C90541" d="M2.192 6.638h12.661v3.688H2.192z" opacity=".337"/><path fill="#FFF" d="M1.147 2.95h14.751v1.475H1.147z" opacity=".5"/><path stroke="#2A2825" stroke-width="1.5" d="M1.897 7.061v9.25c0 .138.112.25.25.25h12.751a.25.25 0 0 0 .25-.25v-9.25H1.898z"/><rect width="15" height="4.05" x=".983" y="3.061" stroke="#2A2825" stroke-width="1.5" rx=".5"/></g></svg>