<svg width="44" height="44" xmlns="http://www.w3.org/2000/svg" xmlns:xlink="http://www.w3.org/1999/xlink"><defs><path d="M15.103 31.911L4.139 19.322l-.104-.102C-.71 14.587-1.416 7.103 2.97 2.93 7.115-1.01 14.123.524 19 4.367 23.874.524 31.64-1.005 35.779 2.93c4.385 4.171 3.553 11.662-1.236 16.313l-.099.102-12.062 13.007c-.23.22-2.754.907-3.08.905-.328.002-3.968-1.127-4.2-1.347z" id="a"/></defs><g fill="none" fill-rule="evenodd"><g transform="translate(3 5.13)"><mask id="b" fill="#fff"><use xlink:href="#a"/></mask><use fill="#FFA6D8" xlink:href="#a"/><path d="M19 34.22L3.572 20.866C-1.3 15.672-2.087 7.156 2.417 2.478c4.256-4.42 15.497-1.606 15.97 3.155C14.77 2.368 7.948 4.112 6.559 8.584c-1.226 3.95.777 10.898 10.544 21.711 1.151 1.275 2.358 2.98 5.263 1.238 0 .47-1.122 1.366-3.365 2.687z" fill="#F871BD" fill-rule="nonzero" mask="url(#b)"/><path d="M38.024 32.502L24.848 20.29c-4.872-5-6.142-12.373-1.638-16.875 4.255-4.256 11.765-7.06 15.936 1.176-5.376-4.306-13.144-1.55-14.298 2.91-1.153 4.46.728 11.951 4.617 15.84.98.98 7.422 9.363 8.979 8.775 0 .452-.14.581-.42.386z" fill="#FFE1F2" fill-rule="nonzero" mask="url(#b)" transform="matrix(-1 0 0 1 59.575 0)"/></g><path d="M20.859 38.701c-6.499-5.312-11.29-9.94-14.372-13.883C1.56 18.513 1.266 12.072 5.77 7.57c4.255-4.256 12.7-2.881 16.23 2.707C25.823 4.836 34.312 3.32 38.56 7.57c4.503 4.502 4.101 11.678-.748 17.274-3.04 3.507-7.831 8.113-14.373 13.816a2 2 0 0 1-2.58.041z" stroke="#2A2825" stroke-width="2"/></g></svg>