<svg width="14" height="13" xmlns="http://www.w3.org/2000/svg"><g fill="none" fill-rule="evenodd"><path d="M7.1 11.68c-.1 0-.2-.03-.27-.1L2.53 7.5l-.02-.03C1.1 6.07 1 3.93 2.3 2.67c1.24-1.17 3.33-1.16 4.8 0 1.45-1.16 3.54-1.17 4.78 0 1.32 1.26 1.22 3.4-.22 4.8l-.03.04-4.28 4.08c-.07.07-.16.1-.26.1z" fill="#FF627D"/><path d="M7.05 11.12l4.1-3.97.06-.05c1.2-1.23 1.3-3.08.24-4.13C10.46 2 8.74 2 7.54 3l-.5.4-.47-.4c-1.22-1-2.93-1.02-3.9-.03C1.6 4 1.68 5.87 2.88 7.1l4.15 4.02z" stroke="#FF253D" stroke-width="1.5"/><path d="M9.6 3.06c.7 0 1.7.86 1.7 2.02" stroke="#FFF" stroke-width="1.5" stroke-linecap="round"/><path d="M6.78 12.05l-4.4-4.4-.03-.04C.88 6.1.78 3.8 2.13 2.45c1.28-1.28 3.42-1.26 4.92-.02 1.5-1.24 3.64-1.26 4.92.02 1.35 1.35 1.25 3.67-.23 5.18l-.03.03-4.38 4.4c-.07.07-.17.1-.27.1s-.2-.03-.27-.1z" stroke="#000" stroke-linecap="round"/></g></svg>