<svg width="14" height="14" xmlns="http://www.w3.org/2000/svg" xmlns:xlink="http://www.w3.org/1999/xlink"><defs><rect id="a" width="12" height="12" rx="1.455"/><path d="M.572 10.93l3.02-5.649a.5.5 0 0 1 .865-.029l2.42 3.883a.5.5 0 0 0 .796.07l.907-1.012a.5.5 0 0 1 .781.047l1.836 2.615A.727.727 0 0 1 10.6 12H1.214a.727.727 0 0 1-.642-1.07z" id="b"/><circle id="c" cx="9" cy="3" r="1"/></defs><g fill="none" fill-rule="evenodd"><g stroke-linecap="square" transform="translate(1 1)"><use fill="#C5EEFA" xlink:href="#a"/><rect stroke="#31323D" x="-.5" y="-.5" width="13" height="13" rx="1.455"/></g><path d="M2.215 2.797l9.62-1.603A1 1 0 0 1 13 2.18v9.365C13 12.35 12.349 13 11.545 13h-9.09A1.455 1.455 0 0 1 1 11.545V4.232c0-.71.514-1.318 1.215-1.435z" fill="#A0D3E2"/><g stroke-linecap="square" transform="translate(1 1)"><use fill="#B8DBA7" xlink:href="#b"/><path stroke="#31323D" d="M.131 10.694l3.02-5.649a1 1 0 0 1 1.73-.057l2.42 3.883.907-1.012a1 1 0 0 1 1.563.094l1.835 2.615A1.227 1.227 0 0 1 10.6 12.5H1.214A1.227 1.227 0 0 1 .13 10.694z"/></g><path d="M1.59 11.924l2.043-3.735a.5.5 0 0 1 .834-.066l2.54 3.291a.5.5 0 0 0 .562.166l2.177-.766a.5.5 0 0 1 .468.073l1.838 1.394a.4.4 0 0 1-.241.719H2.227a.727.727 0 0 1-.638-1.076z" fill="#83CD91"/><g stroke-linecap="square" transform="translate(1 1)"><use fill="#FCDF35" xlink:href="#c"/><circle stroke="#31323D" cx="9" cy="3" r="1.5"/></g></g></svg>