<svg width="45" height="45" xmlns="http://www.w3.org/2000/svg" xmlns:xlink="http://www.w3.org/1999/xlink"><defs><path d="M5 15c1.761 0 5-7.239 5-10A5 5 0 1 0 0 5c0 2.761 3.239 10 5 10z" id="a"/><circle id="b" cx="5" cy="5" r="2"/></defs><g fill="none" fill-rule="evenodd"><circle fill="#7CE0F0" cx="22.5" cy="22.5" r="22.5"/><ellipse fill-opacity=".503" fill="#000" style="mix-blend-mode:soft-light" cx="23.188" cy="30.625" rx="9.188" ry="2.625"/><g transform="translate(18 15)"><use fill="#A8D6FF" xlink:href="#a"/><path stroke="#2A2825" d="M5 15.5C2.972 15.5-.5 8.235-.5 5a5.5 5.5 0 0 1 11 0c0 3.235-3.472 10.5-5.5 10.5z"/></g><path d="M23 30c1.448 0 3.734-4.52 4.558-7.555.179-.656-1.055-3.156-2.391-4.52-1.191-1.218-4.303-2.585-4.92-2.126C18.812 16.867 18 18.132 18 20c0 2.761 3.239 10 5 10z" fill="#4EB4F9"/><path d="M23 30c.499 0 1.096-.536 1.7-1.362-.009-.006-3.797-4.714-6.031-5.491C19.71 26.273 21.736 30 23 30z" fill="#339DE4"/><g transform="translate(18 15)"><use fill="#FFF" xlink:href="#b"/><circle stroke="#2A2825" cx="5" cy="5" r="2.5"/></g><path d="M25 20a2 2 0 0 0-3.756-.958c.35-.15.89-.178 1.62-.085.782.099 1.494.446 2.136 1.043z" fill="#E7E6E4"/></g></svg>