<svg xmlns="http://www.w3.org/2000/svg" width="151.81" height="155.6"><g data-name="Layer 2"><g data-name="deets"><ellipse cx="75.91" cy="81.91" rx="75.91" ry="73.7" fill="#ffd9ff"/><path d="M104.22 124.08a129.89 129.89 0 0 0 14.55-15.52c5.62 1.19 8.88-.82 8.88-.82-4.79-4.19-6.36-7-6.36-7a13.72 13.72 0 0 0 12.1-1.09s-11.55-6.44-13.19-11.59c-6.08-19.09-5.62-20.82-5.62-20.82C118 58 120.91 47.43 118.23 44c-3.44-4.44-7.73 2.52-18.34 9.67 0 0-6.36-6.06-23.42-6.06-11.28 0-22.66 6.17-22.66 6.17-4.81-3.59-8-6.88-11.81-9.11-5.87-3.4-8.64-.3-6.47 7.17.88 3 2.26 9.62 3.63 15.5 1 4.24-.08 3.25-3.43 16.21a44.07 44.07 0 0 1-4.63 9c-3.73 5.75-10.81 7.15-10.81 7.15a13.72 13.72 0 0 0 12.1 1.09s-1.57 2.81-6.36 7c0 0 3.26 2 8.88.82 0 0 3.23 8.68 13.89 14.81 0 0 7.2 8.43 27.73 8.43 18.47-.05 27.69-7.77 27.69-7.77z" fill="#ffe888"/><path d="M60 50.49S39.14 70.23 41.9 97.13c3 29.6 34.59 34.67 34.59 34.67s-25.07 1.34-41.62-23.24c0 0-6 2.14-8.88-.82 0 0 5.39-3.47 6.36-7 0 0-5.5 2.86-12.1-1.09a19.75 19.75 0 0 0 12.22-9.45C39.25 78.55 39.41 59.52 60 50.49z" fill="#eaba5c"/><path d="M50.43 57.23s-4.16-3.41-8.87-6.93c-3.7-2.77-5.38-2.85-6.31.23l4.39 18.34 4-2.55 3.29-5.43z" fill="#eaba5c"/><path fill="#fd71f3" d="M91.24 23.54L76.79.86 62.34 23.38l14.45 17.26 14.45-17.1z"/><path fill="#ffccfe" d="M91.24 23.54l-14.45-5.12-14.45 4.96 14.45 4.75 14.45-4.59z"/><path fill="#f930e7" opacity=".99" d="M69.95 22.66l6.84-19.97-14.45 20.69 14.45 15.69-6.84-16.41z"/><path fill="#ffa4ff" opacity=".99" d="M69.95 22.66l.96-2.81-8.57 3.53 9.4 3.57-1.79-4.29z"/><path d="M103.32 57.23s4.16-3.41 8.87-6.93c3.7-2.77 5.38-2.85 6.31.23l-4.39 18.34-4-2.55-3.29-5.43z" fill="#eaba5c"/><path d="M34.87 108.56c-5.62 1.19-8.88-.82-8.88-.82 4.79-4.19 6.36-7 6.36-7a13.72 13.72 0 0 1-12.1-1.09 18.45 18.45 0 0 0 12.22-9.45c2.88-5.64 6.71-16.75 9.8-22.39 7.95-14.48 18.29-20.22 34.2-20.22 14.77 0 27.05 5.74 35 20.22 3.1 5.64 6.93 16.75 9.81 22.39a18.45 18.45 0 0 0 12.22 9.45 13.72 13.72 0 0 1-12.1 1.09s1.57 2.81 6.36 7c0 0-3.26 2-8.88.82 0 0-14.51 23.24-42 23.24s-42.01-23.24-42.01-23.24z" fill="none" stroke="#44392e" stroke-linecap="round" stroke-linejoin="round" stroke-width="1.854"/><path fill="none" stroke="#3d2a3f" stroke-linecap="round" stroke-linejoin="round" stroke-width="1.725" d="M91.24 23.54L76.79.86 62.34 23.38l14.45 17.26 14.45-17.1z"/><path fill="none" stroke="#3d2a3f" stroke-linecap="round" stroke-linejoin="round" stroke-width="1.725" d="M91.24 23.54l-14.45-5.67-14.45 5.51 14.45 5.49 14.45-5.33z"/><path fill="none" stroke="#3d2a3f" stroke-linecap="round" stroke-miterlimit="10" stroke-width="1.725" d="M76.79.86v39.78"/><path fill="none" stroke="#ff6cf5" stroke-linecap="round" stroke-miterlimit="10" stroke-width="2.695" d="M90.56 11.48l6.85-4.45m-38.07 28l-3.15 2.33m2.79-27.04l-5.13-3.78m37.74 27.13l3.88 2.72"/><path d="M53.08 53.19s-8.77-6.7-11.08-8.52c-4.29-3.32-8.63-1.73-7 5.07 1.1 4.51 4.65 19.13 4.65 19.13m60.24-15.22s9.5-7.26 11.86-9.09c4.28-3.32 8.62-1.73 7 5.07-1.1 4.52-4.61 19.24-4.61 19.24" fill="none" stroke="#44392e" stroke-linecap="round" stroke-linejoin="round" stroke-width="1.854"/><circle cx="49.48" cy="79.79" r="14.64" fill="#fff" stroke="#44392e" stroke-miterlimit="10" stroke-width="1.854"/><circle cx="49.56" cy="77.92" r="8.61" fill="#f930e7" stroke="#f930e7" stroke-miterlimit="10" stroke-width="2.542"/><ellipse cx="49.47" cy="71.79" rx="4.22" ry="4.2" transform="rotate(-45.03 49.456 71.781)" fill="#fff"/><circle cx="104.36" cy="79.79" r="14.64" fill="#fff" stroke="#44392e" stroke-miterlimit="10" stroke-width="1.854"/><circle cx="104.45" cy="77.92" r="8.61" fill="#f930e7" stroke="#f930e7" stroke-miterlimit="10" stroke-width="2.542"/><ellipse cx="104.35" cy="71.79" rx="4.22" ry="4.2" transform="rotate(-45.03 104.338 71.788)" fill="#fff"/><path d="M85.28 105.48c0 4.94-3.69 10.36-8.25 10.36s-8.24-5.41-8.24-10.34l8.21-5.16z" fill="#44392e"/><path d="M83.7 112.49a9.3 9.3 0 0 0-13.44.12l6.74 2.94z" fill="#f930e7"/><path d="M70.78 112.77c.6-1.77 3.17-3.09 6.26-3.09 2.87 0 5.3 1.14 6.1 2.72" fill="none" stroke="#44392e" stroke-linecap="round" stroke-miterlimit="10" stroke-width="1.271"/><path fill="none" stroke="#fff" stroke-linecap="round" stroke-linejoin="round" stroke-width="4.843" d="M76.45 102.83h1.2"/><path d="M98.42 103.33a12.85 12.85 0 0 1-6.71 2.85 18.43 18.43 0 0 1-7.31-.56 14.56 14.56 0 0 1-6.54-3.69 7.35 7.35 0 0 1-2-3.63 6.86 6.86 0 0 1-.12-1.08v-.88l-.06-1.76a1.35 1.35 0 1 1 2.69-.09v.09l-.06 1.76v.88a3.66 3.66 0 0 0 0 .67 5 5 0 0 0 1.21 2.53 12.53 12.53 0 0 0 5.48 3.44 16.84 16.84 0 0 0 6.61.89 11.58 11.58 0 0 0 6.21-2.22.52.52 0 0 1 .72.1.51.51 0 0 1-.12.7z" fill="#44392e"/><path d="M57.28 102.59a9.89 9.89 0 0 0 6.09 2.16 15.92 15.92 0 0 0 6.47-1.15 11.33 11.33 0 0 0 5-3.69 4.28 4.28 0 0 0 .85-2.54c0-1.1-.07-2.3 0-3.45a1.35 1.35 0 0 1 2.69 0c0 1.17 0 2.29-.06 3.51a6.76 6.76 0 0 1-.48 2.11 8.26 8.26 0 0 1-1.07 1.77 13.34 13.34 0 0 1-6.29 4 17.69 17.69 0 0 1-7.22.8 11.14 11.14 0 0 1-6.62-2.88.47.47 0 0 1 0-.66.47.47 0 0 1 .64.02z" fill="#44392e"/><path d="M85.28 106.28c0 4.6-3.69 9.27-8.25 9.27s-8.24-4.67-8.24-9.27" fill="none" stroke="#44392e" stroke-linecap="round" stroke-miterlimit="10" stroke-width="2.118"/><path d="M70.05 93.87a1.68 1.68 0 0 1 .38-1.75c1-1 3-2.4 6.81-2.43S82.84 91 83.7 92a1.67 1.67 0 0 1 .3 1.77 2.23 2.23 0 0 1-2 1.36 4.25 4.25 0 0 0-3.49 1.75 1.12 1.12 0 0 1-.19.24A1.85 1.85 0 0 1 75.6 97s-.78-1.37-3.64-1.6a2.22 2.22 0 0 1-1.89-1.49zM66.09 97a33.17 33.17 0 0 0-16.35.48 25.48 25.48 0 0 0-7.42 3.68 25.94 25.94 0 0 0-5.89 5.94 26.33 26.33 0 0 1 5.57-6.36 26 26 0 0 1 7.4-4.19 34.66 34.66 0 0 1 17-1.42.92.92 0 1 1-.26 1.87z" fill="#44392e"/><path d="M66.25 99.37a31.21 31.21 0 0 0-5.56.21 13.85 13.85 0 0 0-5.18 1.72 10.55 10.55 0 0 0-3.8 3.93 17.65 17.65 0 0 0-1.86 5.34A18 18 0 0 1 51.3 105a11.12 11.12 0 0 1 3.7-4.47 15 15 0 0 1 5.43-2.32 32.79 32.79 0 0 1 5.81-.69.93.93 0 1 1 .08 1.85zm21.31-4.24a34.64 34.64 0 0 1 17 1.42 26.21 26.21 0 0 1 7.41 4.19 26.5 26.5 0 0 1 5.6 6.31 25.94 25.94 0 0 0-5.89-5.94 25.36 25.36 0 0 0-7.42-3.68A33.17 33.17 0 0 0 87.88 97a.92.92 0 1 1-.37-1.81z" fill="#44392e"/><path d="M87.72 97.52a32.79 32.79 0 0 1 5.82.69 15.12 15.12 0 0 1 5.46 2.32 11.28 11.28 0 0 1 3.71 4.49 18 18 0 0 1 1.44 5.55 17.91 17.91 0 0 0-1.85-5.34 10.57 10.57 0 0 0-3.81-3.93 13.85 13.85 0 0 0-5.18-1.72 31.18 31.18 0 0 0-5.56-.21.91.91 0 0 1-1-.88.92.92 0 0 1 .89-1z" fill="#44392e"/></g></g></svg>