<svg width="40" height="39" xmlns="http://www.w3.org/2000/svg" xmlns:xlink="http://www.w3.org/1999/xlink"><defs><rect id="a" width="17" height="22" rx="2"/></defs><g fill="none" fill-rule="evenodd"><ellipse fill="#FFB1AE" cx="20" cy="19.5" rx="20" ry="19.5"/><ellipse fill-opacity=".503" fill="#000" style="mix-blend-mode:soft-light" cx="19.75" cy="30.375" rx="9" ry="2.5"/><g transform="translate(11.429 8)"><use fill="#FFFEFD" xlink:href="#a"/><rect stroke="#363431" x=".5" y=".5" width="16" height="21" rx="2"/></g><path d="M12.535 18.886c.647 3.1 1.562 5.285 2.745 6.556 1.129 1.214 2.791 2.2 4.988 2.958A.822.822 0 0 1 20 30h-6.571a2 2 0 0 1-2-2v-9a.56.56 0 0 1 1.106-.114z" fill="#A5795B" opacity=".2"/><path d="M14.929 24h10m-10-5h10m-10-5h10" stroke="#363431" stroke-linecap="round"/></g></svg>