<svg width="45" height="45" xmlns="http://www.w3.org/2000/svg" xmlns:xlink="http://www.w3.org/1999/xlink"><defs><path d="M13 9c1.333-1.194 2-2.527 2-4 0-1.473-.667-2.806-2-4-1.333 1.194-2 2.527-2 4 0 1.473.667 2.806 2 4z" id="a"/><path d="M12.5 16c1-.895 1.5-1.895 1.5-3s-.5-2.105-1.5-3c-1 .895-1.5 1.895-1.5 3s.5 2.105 1.5 3z" id="b"/><path d="M3.763 11.627c1-1.045 1.5-2.212 1.5-3.5 0-1.289-.5-2.456-1.5-3.5-1 1.044-1.5 2.211-1.5 3.5 0 1.288.5 2.455 1.5 3.5z" id="c"/></defs><g fill="none" fill-rule="evenodd"><circle fill="#43EDAC" cx="22.5" cy="22.5" r="22.5"/><ellipse fill-opacity=".503" fill="#000" style="mix-blend-mode:soft-light" cx="21.188" cy="30.625" rx="9.188" ry="2.625"/><g transform="rotate(34 3.646 32.896)"><use fill="#FFF" xlink:href="#a"/><path stroke="#2A2825" d="M12.666 9.372C11.232 8.088 10.5 6.624 10.5 5c0-1.624.732-3.088 2.166-4.372l.334-.3.334.3C14.768 1.912 15.5 3.376 15.5 5c0 1.624-.732 3.088-2.166 4.372l-.334.3-.334-.3z"/></g><path d="M24.763 18.316c1.662-.384 2.746-.861 3.251-1.433.918-1.037.373-5.048-.008-4.928-1.156.366-2.045 1.008-2.664 1.927-.824 1.22-1.017 2.699-.579 4.434z" fill="#E7E6E4"/><g transform="rotate(58 10.48 30.628)"><use fill="#FFF" xlink:href="#b"/><path stroke="#2A2825" d="M12.166 16.372c-1.1-.985-1.666-2.117-1.666-3.372s.566-2.387 1.666-3.372l.334-.3.334.3c1.1.985 1.666 2.117 1.666 3.372s-.566 2.387-1.666 3.372l-.334.3-.334-.3z"/></g><path d="M23.956 24.59c1.29.373 2.402.267 3.339-.318.731-.457 1.247-1.139 1.547-2.045.084-.254-4.21.424-4.52 1.122-.11.247-.232.66-.366 1.24z" fill="#E7E6E4"/><g transform="scale(-1 1) rotate(45 -19.071 -12.858)"><use fill="#FFF" xlink:href="#c"/><path stroke="#2A2825" stroke-width="1.1" d="M3.366 12.007c-1.095-1.144-1.653-2.445-1.653-3.88s.558-2.737 1.653-3.88l.397-.416.397.415c1.095 1.144 1.653 2.446 1.653 3.88 0 1.436-.558 2.737-1.653 3.881l-.397.415-.397-.415z"/></g><path d="M20.238 20.602c-1.446-.032-2.624-.503-3.536-1.415-.442-.442-.836-1.034-1.016-1.517-.18-.484 2.871-.962 3.822.26.38.489.623 1.379.73 2.672z" fill="#E7E6E4"/><path d="M21 30c.383-3.416.88-5.968 1.488-7.656.61-1.688 1.908-3.807 3.897-6.357M20.761 30c.474-3.92.579-6.46.314-7.62-.264-1.162-1.01-2.22-2.236-3.174" stroke="#2A2825" stroke-linecap="round"/><path d="M21 30c.393-1.719.864-3.018 1.415-3.896.55-.878 1.686-1.757 3.406-2.636" stroke="#2A2825" stroke-linecap="round"/></g></svg>