<svg width="40" height="39" xmlns="http://www.w3.org/2000/svg" xmlns:xlink="http://www.w3.org/1999/xlink"><defs><ellipse id="a" cx="20" cy="19.5" rx="20" ry="19.5"/></defs><g fill="none" fill-rule="evenodd"><mask id="b" fill="#fff"><use xlink:href="#a"/></mask><use fill="#FFB77A" xlink:href="#a"/><ellipse fill="#EA9852" mask="url(#b)" cx="20.476" cy="30" rx="12.857" ry="1.429"/><rect fill="#FFF" mask="url(#b)" x="6.667" y="10" width="26.667" height="19.524" rx="2"/><rect fill="#EF9FFC" mask="url(#b)" x="10.476" y="18.095" width="6" height="7.5" rx="1"/><rect fill="#363431" mask="url(#b)" x="19.048" y="18.095" width="10.5" height="1" rx=".5"/><rect fill="#363431" mask="url(#b)" x="19.048" y="20.317" width="10.5" height="1" rx=".5"/><rect fill="#363431" mask="url(#b)" x="19.048" y="22.54" width="10.5" height="1" rx=".5"/><rect fill="#363431" mask="url(#b)" x="19.048" y="24.762" width="5" height="1" rx=".5"/><rect fill="#363431" mask="url(#b)" x="10" y="13.81" width="20" height="1.5" rx=".75"/><path d="M7.143 19.94c0 5.953 2.917 9.226 11.31 9.226H8.222l-1.08-1.31V19.94z" fill="#E2E2E2" mask="url(#b)"/><rect stroke="#363431" mask="url(#b)" x="7.167" y="10.5" width="25.667" height="18.524" rx="2"/></g></svg>