<svg width="22" height="22" xmlns="http://www.w3.org/2000/svg" xmlns:xlink="http://www.w3.org/1999/xlink"><defs><path d="M7.72.393l10.413 6.021a1 1 0 0 1 .365 1.366l-4.328 7.499a1 1 0 0 1-1.379.358L2.385 9.425a1 1 0 0 1-.466-.652L.79 3.423a1 1 0 0 1 .64-1.148L6.881.318a1 1 0 0 1 .84.075z" id="a"/><linearGradient x1="34.898%" y1="76.158%" x2="75%" y2="6.699%" id="b"><stop stop-color="#FFA864" offset="0%"/><stop stop-color="#EF541D" offset="100%"/></linearGradient></defs><g fill="none" fill-rule="evenodd"><g transform="rotate(11 -5.712 11.683)" opacity=".5"><mask id="c" fill="#fff"><use xlink:href="#a"/></mask><use fill="#FFAC6C" xlink:href="#a"/><path d="M5.421 2.412l11.707 6.85a1 1 0 0 1 .369 1.348l-2.263 4.068-16.52-9.857L5.42 2.412z" fill="url(#b)" mask="url(#c)" transform="scale(1 -1) rotate(-60 -6.664 0)"/><path d="M1.375 2.32l4.724-.808a2 2 0 0 1 1.317.228l9.541 5.362a2 2 0 0 1 .997 2.044l-.071.47 1.37-2.94C11.507 1.984 7.544-.334 7.364-.277c-.18.056-2.176.921-5.99 2.596z" fill="#FFE4CF" mask="url(#c)"/><path d="M8.096-.256l10.412 6.02a1.75 1.75 0 0 1 .64 2.39l-4.329 7.5a1.75 1.75 0 0 1-2.39.64l-.022-.013L2 10.07a1.75 1.75 0 0 1-.815-1.141L.057 3.578a1.75 1.75 0 0 1 1.12-2.009L6.629-.388a1.75 1.75 0 0 1 1.468.132z" stroke="#31323D" stroke-width="1.5" stroke-linecap="round" stroke-linejoin="round"/><circle fill="#31323D" cx="5.526" cy="5.456" r="1.75"/></g><g stroke-linecap="round"><path d="M16.5 5.5L4.958 16.58" stroke="#FFF" stroke-width="3"/><path d="M18 4L4.458 17.08" stroke="#31323D" stroke-width="1.5"/></g></g></svg>