<svg width="40" height="39" xmlns="http://www.w3.org/2000/svg" xmlns:xlink="http://www.w3.org/1999/xlink"><defs><ellipse id="a" cx="20" cy="19.5" rx="20" ry="19.5"/></defs><g fill="none" fill-rule="evenodd"><mask id="b" fill="#fff"><use xlink:href="#a"/></mask><use fill="#70E7E2" xlink:href="#a"/><path d="M16.602 37.616l.131-11.458c3.048-1.312 5.19-4.417 5.19-8.039 0-3.621-2.142-6.726-5.19-8.038v8.036h-6.487V10.08c-3.047 1.312-5.19 4.417-5.19 8.038 0 3.622 2.143 6.727 5.19 8.039l-.148 11.412" stroke="#363431" fill="#FFFEFD" mask="url(#b)" transform="rotate(60 13.49 23.848)"/><path d="M14.535 41.698l-.063-10.855c3.048-1.312 5.19-4.417 5.19-8.038 0-3.622-2.142-6.727-5.19-8.039 2.129 3.102 3.092 5.948 2.889 8.54-.203 2.592-1.728 4.616-4.575 6.073l.014 12.35 1.735-.031z" fill="#A5795B" opacity=".2" mask="url(#b)" transform="rotate(60 16.224 28.247)"/></g></svg>